<svg width="80" height="80" viewBox="0 0 80 80" fill="none" xmlns="http://www.w3.org/2000/svg">
<g id="Frame 391">
<g id="&#232;&#131;&#140;-&#228;&#186;&#145;-&#230;&#143;&#143;&#232;&#190;&#185;" filter="url(#filter0_i_329_1910)">
<path fill-rule="evenodd" clip-rule="evenodd" d="M59.7945 32.3443C67.304 37.2444 72.7624 46.3065 72.7624 55.0353C72.7624 62.1718 69.0449 67.5887 63.0542 69.1811L54.1366 71.5516C52.1297 72.0851 49.907 72.0872 47.6197 71.5578C43.7332 70.6584 40.1267 68.386 37.2308 65.3608L30.7115 63.2947C22.1378 60.5776 15.1875 51.1305 15.1875 42.1941C15.1875 38.8842 16.141 36.1086 17.7773 34.0636C16.772 32.075 16.158 30.0159 16.158 27.9957C16.158 19.3908 24.6768 16.093 31.2211 18.1226C31.4535 18.1947 31.6863 18.277 31.919 18.3693C32.0057 17.8096 32.1262 17.2802 32.2827 16.7856C34.952 8.35214 45.4006 9.13195 50.9661 12.0784C57.029 15.2882 60.6993 25.4403 59.7945 32.3443Z" fill="url(#paint0_linear_329_1910)"/>
</g>
<g id="Union" filter="url(#filter1_d_329_1910)">
<path fill-rule="evenodd" clip-rule="evenodd" d="M52.4237 33.0455C58.8822 38.4666 63.3082 46.8283 63.3082 54.8925V56.5557C63.3082 67.9845 54.4184 74.4879 43.4522 71.0814C42.2714 70.7146 41.1148 70.2479 39.9907 69.6928L23.163 64.3685C14.2364 61.5441 7 51.7119 7 42.4077C7 36.3295 10.0883 31.9802 14.7186 30.4824C13.7829 23.8666 18.3877 17.8768 23.5977 18.6855C24.8946 18.8868 26.0873 19.3557 27.1676 20.0817C29.4102 13.0508 34.665 9.24424 39.4004 10.8723C48.8812 14.1319 52.6324 23.6359 52.4237 33.0455Z" fill="#D5D5D5"/>
</g>
<path id="163" d="M27.6775 50.3158L26.4513 49.8816L27.0795 40.0451C26.7759 40.2883 26.3751 40.506 25.8771 40.698C25.3794 40.8842 24.9259 40.9984 24.5166 41.0405L24.6119 39.5483C25.3113 39.3867 25.9362 39.1082 26.4868 38.7126C27.0428 38.319 27.4433 37.885 27.6883 37.4104L28.4836 37.6921L27.6775 50.3158ZM37.7617 44.1786L36.5361 43.8674C36.4614 43.1803 36.3196 42.6594 36.1106 42.3048C35.8103 41.7892 35.431 41.4502 34.9725 41.2879C34.26 41.0356 33.6591 41.2905 33.1699 42.0527C32.7495 42.7106 32.4872 43.8105 32.3831 45.3522C32.6998 44.9031 33.0798 44.6137 33.523 44.4842C33.9665 44.3489 34.4258 44.3654 34.9008 44.5336C35.6906 44.8133 36.3546 45.4285 36.8926 46.379C37.4365 47.3258 37.6688 48.4196 37.5896 49.6602C37.5359 50.5007 37.338 51.2111 36.996 51.7916C36.6598 52.3682 36.2493 52.7374 35.7646 52.899C35.2798 53.0606 34.7585 53.0426 34.2006 52.845C33.1954 52.4891 32.3968 51.7269 31.805 50.5584C31.2131 49.39 30.9871 47.7109 31.1269 45.5212C31.2821 43.0914 31.7266 41.4802 32.4607 40.6878C33.1951 39.8896 34.0842 39.6754 35.1281 40.045C35.8848 40.313 36.5001 40.8057 36.9739 41.523C37.4536 42.2366 37.7162 43.1218 37.7617 44.1786ZM32.4198 47.8295C32.3617 48.7385 32.5221 49.5437 32.901 50.245C33.2802 50.9405 33.7432 51.3851 34.29 51.5787C34.7705 51.7489 35.2152 51.6403 35.624 51.2531C36.0383 50.8678 36.2745 50.2206 36.3325 49.3115C36.3895 48.4196 36.2459 47.6613 35.9017 47.0367C35.5575 46.412 35.1148 46.0038 34.5735 45.8121C34.0432 45.6243 33.5636 45.7059 33.1345 46.0568C32.7113 46.4039 32.4731 46.9948 32.4198 47.8295ZM38.7676 50.8491L40.0069 51.0775C40.1558 52.814 40.7467 53.8652 41.7795 54.2309C42.3374 54.4285 42.8362 54.3566 43.276 54.0154C43.7161 53.6685 43.961 53.1062 44.0106 52.3287C44.0573 51.5969 43.9072 50.9415 43.56 50.3625C43.2129 49.7836 42.766 49.3973 42.2192 49.2036C41.9872 49.1215 41.6963 49.077 41.3466 49.07L41.574 47.7649L41.7634 47.8496C42.3655 48.0627 42.8665 48.0443 43.2665 47.7943C43.6666 47.5442 43.8871 47.099 43.9279 46.4587C43.9656 45.8698 43.8383 45.3424 43.5461 44.8764C43.2542 44.4047 42.8819 44.0887 42.429 43.9283C41.9595 43.7621 41.5498 43.8099 41.1998 44.0719C40.8557 44.33 40.6152 44.8237 40.4783 45.5528L39.2779 44.8471C39.5012 43.827 39.901 43.1384 40.4773 42.7812C41.0537 42.424 41.7257 42.3814 42.4934 42.6532C43.2998 42.9388 43.965 43.4901 44.489 44.307C45.0129 45.124 45.2449 46.0013 45.1851 46.9389C45.1486 47.5107 44.9947 47.9736 44.7236 48.3278C44.458 48.6839 44.1017 48.9115 43.6549 49.0105C44.0452 49.2656 44.3618 49.5707 44.6046 49.9256C44.8474 50.2805 45.0349 50.7065 45.1669 51.2034C45.299 51.7004 45.3477 52.2204 45.313 52.7635C45.2392 53.9184 44.8502 54.7483 44.1458 55.253C43.4418 55.7521 42.6314 55.8393 41.7145 55.5146C40.8639 55.2134 40.1636 54.638 39.6135 53.7884C39.0634 52.9388 38.7814 51.959 38.7676 50.8491Z" fill="#6C6C6C"/>
</g>
<defs>
<filter id="filter0_i_329_1910" x="15.1875" y="10.0327" width="57.5747" height="63.9204" filterUnits="userSpaceOnUse" color-interpolation-filters="sRGB">
<feFlood flood-opacity="0" result="BackgroundImageFix"/>
<feBlend mode="normal" in="SourceGraphic" in2="BackgroundImageFix" result="shape"/>
<feColorMatrix in="SourceAlpha" type="matrix" values="0 0 0 0 0 0 0 0 0 0 0 0 0 0 0 0 0 0 127 0" result="hardAlpha"/>
<feOffset dy="2"/>
<feGaussianBlur stdDeviation="1"/>
<feComposite in2="hardAlpha" operator="arithmetic" k2="-1" k3="1"/>
<feColorMatrix type="matrix" values="0 0 0 0 0 0 0 0 0 0 0 0 0 0 0 0 0 0 0.15 0"/>
<feBlend mode="normal" in2="shape" result="effect1_innerShadow_329_1910"/>
</filter>
<filter id="filter1_d_329_1910" x="6" y="10.4985" width="60.3081" height="65.4883" filterUnits="userSpaceOnUse" color-interpolation-filters="sRGB">
<feFlood flood-opacity="0" result="BackgroundImageFix"/>
<feColorMatrix in="SourceAlpha" type="matrix" values="0 0 0 0 0 0 0 0 0 0 0 0 0 0 0 0 0 0 127 0" result="hardAlpha"/>
<feOffset dx="1" dy="2"/>
<feGaussianBlur stdDeviation="1"/>
<feComposite in2="hardAlpha" operator="out"/>
<feColorMatrix type="matrix" values="0 0 0 0 0.0162326 0 0 0 0 0.124592 0 0 0 0 0.354167 0 0 0 0.2 0"/>
<feBlend mode="normal" in2="BackgroundImageFix" result="effect1_dropShadow_329_1910"/>
<feBlend mode="normal" in="SourceGraphic" in2="effect1_dropShadow_329_1910" result="shape"/>
</filter>
<linearGradient id="paint0_linear_329_1910" x1="44.2183" y1="12.1435" x2="82.0958" y2="36.5009" gradientUnits="userSpaceOnUse">
<stop offset="0.00347201" stop-color="#F8F8F8"/>
<stop offset="0.365468" stop-color="#767676"/>
<stop offset="0.707816" stop-color="#999999"/>
<stop offset="1" stop-color="#565656"/>
</linearGradient>
</defs>
</svg>
