<svg width="48" height="48" viewBox="0 0 48 48" fill="none" xmlns="http://www.w3.org/2000/svg">
<g id="Group 462">
<g id="Group 423">
<g id="Group 325">
<path id="Subtract" fill-rule="evenodd" clip-rule="evenodd" d="M4.60576 19.9529C3.54564 18.8163 3 17.5982 3 16.3679C3 16.3588 3.00003 16.3496 3.00009 16.3405H3V16.3679V32.3263C3 37.0996 12.4458 40.9613 24.0721 40.9613C35.6984 40.9613 45.1442 37.0904 45.1442 32.3217V16.985C44.9927 18.0041 44.4667 19.0068 43.5842 19.9529C42.5241 21.0895 40.9703 22.1222 39.0114 22.9921C37.0526 23.862 34.7271 24.552 32.1677 25.0228C29.6083 25.4936 26.8652 25.7359 24.095 25.7359C21.3248 25.7359 18.5817 25.4936 16.0223 25.0228C13.4629 24.552 11.1374 23.862 9.17858 22.9921C7.21973 22.1222 5.66588 21.0895 4.60576 19.9529Z" fill="url(#paint0_linear_248_2991)"/>
<path id="Vector (Stroke)" fill-rule="evenodd" clip-rule="evenodd" d="M4.72476 27.0277C3.61919 25.8044 3 24.935 3 23.5V22C3 23.0112 4.78697 25.064 5.724 26.1008C6.66505 27.142 8.07642 28.1207 9.90897 28.9605C11.7377 29.7986 13.9245 30.4702 16.3476 30.9302C18.7696 31.39 21.3704 31.6275 24 31.6275C26.6296 31.6275 29.2304 31.39 31.6523 30.9302C34.0755 30.4702 36.2623 29.7986 38.091 28.9605C39.9236 28.1207 41.3349 27.142 42.276 26.1008C43.213 25.064 45 23.0112 45 22V23.5C45 24.935 44.3808 25.8044 43.2752 27.0277C42.1737 28.2465 40.5911 29.3212 38.6494 30.2111C36.7039 31.1027 34.41 31.8032 31.9019 32.2793C29.3926 32.7556 26.708 33 24 33C21.292 33 18.6074 32.7556 16.0981 32.2793C13.59 31.8032 11.2961 31.1027 9.35055 30.2111C7.40886 29.3212 5.82633 28.2465 4.72476 27.0277Z" fill="#46C1A5"/>
<path id="Vector" d="M3 16.5C3 17.7476 3.54318 18.9829 4.59853 20.1355C5.65388 21.2881 7.20073 22.3354 9.15076 23.2175C11.1008 24.0997 13.4158 24.7994 15.9636 25.2769C18.5115 25.7543 21.2422 26 24 26C26.7578 26 29.4885 25.7543 32.0364 25.2769C34.5842 24.7994 36.8992 24.0997 38.8492 23.2175C40.7993 22.3354 42.3461 21.2881 43.4015 20.1355C44.4568 18.9829 45 17.7476 45 16.5C45 15.2524 44.4568 14.0171 43.4015 12.8645C42.3461 11.7119 40.7993 10.6646 38.8492 9.78249C36.8992 8.90033 34.5842 8.20056 32.0364 7.72314C29.4885 7.24572 26.7578 7 24 7C21.2422 7 18.5115 7.24572 15.9636 7.72314C13.4158 8.20056 11.1008 8.90033 9.15076 9.78249C7.20073 10.6646 5.65388 11.7119 4.59853 12.8645C3.54318 14.0171 3 15.2524 3 16.5Z" fill="#5DCCB3"/>
</g>
<g id="Group 326">
<g id="Group 275">
<g id="Group 274">
<path id="Vector 1" d="M13.0366 20.5737H32.1684" stroke="white" stroke-width="1.6"/>
<path id="Polygon 1" d="M34.9318 20.5737L30.4361 22.4798L30.4993 18.6676L34.9318 20.5737Z" fill="white"/>
</g>
</g>
<g id="Group 276">
<g id="Group 274_2">
<path id="Vector 1_2" d="M34.9927 16.8873H15.8609" stroke="white" stroke-width="1.6"/>
<path id="Polygon 1_2" d="M13.0978 16.8874L17.5302 18.7935L17.5935 14.9812L13.0978 16.8874Z" fill="white"/>
</g>
</g>
<g id="Group 277">
<g id="Group 274_3">
<path id="Vector 1_3" d="M13.1587 13.201H32.2904" stroke="white" stroke-width="1.6"/>
<path id="Polygon 1_3" d="M35.0538 13.201L30.5582 15.1071L30.6214 11.2949L35.0538 13.201Z" fill="white"/>
</g>
</g>
</g>
</g>
<path id="&#229;&#133;&#182;&#228;&#187;&#150;" d="M17.9331 40H17.1777L16.6377 38.5508H14.4331L13.9238 40H13.1685L15.1851 34.7056H15.9165L17.9331 40ZM16.4258 37.9526L15.626 35.7515C15.6009 35.6808 15.5736 35.5578 15.5439 35.3823H15.5269C15.5018 35.5418 15.4733 35.6649 15.4414 35.7515L14.6484 37.9526H16.4258ZM20.5649 38.1611H18.5518V37.645H20.5649V38.1611ZM24.5229 40H21.7305V34.7056H22.4141V39.395H24.5229V40ZM28.3203 38.2808H25.6748C25.6862 38.6841 25.7967 38.9963 26.0063 39.2173C26.216 39.436 26.5088 39.5454 26.8848 39.5454C27.3086 39.5454 27.6971 39.4098 28.0503 39.1387V39.7368C27.7176 39.9715 27.2767 40.0889 26.7275 40.0889C26.1807 40.0889 25.7534 39.9157 25.4458 39.5693C25.1405 39.223 24.9878 38.7422 24.9878 38.127C24.9878 37.5482 25.1553 37.0708 25.4902 36.6948C25.8275 36.3188 26.2456 36.1309 26.7446 36.1309C27.2391 36.1309 27.6253 36.2904 27.9033 36.6094C28.1813 36.9261 28.3203 37.3704 28.3203 37.9424V38.2808ZM27.6504 37.7441C27.6481 37.4023 27.5672 37.138 27.4077 36.9512C27.2482 36.7643 27.0238 36.6709 26.7344 36.6709C26.4678 36.6709 26.2365 36.77 26.0405 36.9683C25.8468 37.1665 25.7249 37.4251 25.6748 37.7441H27.6504ZM29.3013 36.4829C29.6772 36.2482 30.1113 36.1309 30.6035 36.1309C31.515 36.1309 31.9707 36.6094 31.9707 37.5664V40H31.3076V39.4155H31.2905C31.0285 39.8644 30.6423 40.0889 30.1318 40.0889C29.765 40.0889 29.4733 39.9897 29.2568 39.7915C29.0404 39.5933 28.9321 39.3255 28.9321 38.9883C28.9321 38.2819 29.3503 37.8706 30.1865 37.7544L31.3076 37.5972C31.3076 36.9797 31.0524 36.6709 30.542 36.6709C30.0885 36.6709 29.675 36.8236 29.3013 37.1289V36.4829ZM30.4224 38.2227C30.1125 38.2637 29.8983 38.3411 29.7798 38.4551C29.6636 38.569 29.6055 38.7285 29.6055 38.9336C29.6055 39.1136 29.6693 39.2606 29.7969 39.3745C29.9245 39.4884 30.0931 39.5454 30.3027 39.5454C30.5944 39.5454 30.8348 39.4429 31.0239 39.2378C31.2131 39.0327 31.3076 38.7752 31.3076 38.4653V38.103L30.4224 38.2227ZM35.0195 34.9756C34.8942 34.9095 34.7586 34.8765 34.6128 34.8765C34.1935 34.8765 33.9839 35.1362 33.9839 35.6558V36.2197H34.8691V36.7734H33.9839V40H33.3208V36.7734H32.6748V36.2197H33.3208V35.625C33.3208 35.2194 33.437 34.9015 33.6694 34.6714C33.9041 34.439 34.2015 34.3228 34.5615 34.3228C34.7529 34.3228 34.9056 34.3444 35.0195 34.3877V34.9756Z" fill="white"/>
</g>
<defs>
<linearGradient id="paint0_linear_248_2991" x1="4.97664" y1="28.4285" x2="45.4977" y2="28.4285" gradientUnits="userSpaceOnUse">
<stop stop-color="#2DA388"/>
<stop offset="0.505208" stop-color="#115B57"/>
<stop offset="1" stop-color="#0B3C43"/>
</linearGradient>
</defs>
</svg>
