<svg width="48" height="48" viewBox="0 0 48 48" fill="none" xmlns="http://www.w3.org/2000/svg">
<g id="Group 431">
<g id="Group 413">
<path id="Vector" d="M3 17V30.5341C3 35.4376 12.5574 39.4047 24.3211 39.4047C36.0849 39.4047 45.6423 35.4282 45.6423 30.5294V17H24.3211H3Z" fill="url(#paint0_linear_248_3047)"/>
<path id="Vector_2" d="M3 16.6235C3 17.8873 3.55209 19.1387 4.62474 20.3063C5.69739 21.4739 7.2696 22.5348 9.25161 23.4284C11.2336 24.322 13.5866 25.0309 16.1762 25.5145C18.7658 25.9981 21.5413 26.2471 24.3443 26.2471C27.1473 26.2471 29.9228 25.9981 32.5124 25.5145C35.1021 25.0309 37.455 24.322 39.437 23.4284C41.419 22.5348 42.9912 21.4739 44.0639 20.3063C45.1366 19.1387 45.6886 17.8873 45.6886 16.6235C45.6886 15.3598 45.1366 14.1083 44.0639 12.9408C42.9912 11.7732 41.419 10.7123 39.437 9.81867C37.455 8.92504 35.1021 8.21618 32.5124 7.73255C29.9228 7.24892 27.1473 7 24.3443 7C21.5413 7 18.7658 7.24892 16.1762 7.73255C13.5866 8.21618 11.2336 8.92504 9.25161 9.81867C7.2696 10.7123 5.69739 11.7732 4.62474 12.9408C3.55209 14.1083 3 15.3598 3 16.6235Z" fill="#5DCCB3"/>
<path id="A" d="M28.5984 37H27.5193L26.7479 34.9297H23.5984L22.8709 37H21.7918L24.6727 29.4365H25.7176L28.5984 37ZM26.4451 34.0752L25.3025 30.9307C25.2667 30.8298 25.2277 30.654 25.1854 30.4033H25.1609C25.1251 30.6312 25.0844 30.807 25.0389 30.9307L23.9061 34.0752H26.4451Z" fill="white"/>
<g id="Group 413_2">
<path id="Vector_3" d="M28.0037 15.9704L31.6179 14.3145L33.858 15.3006C34.1961 15.4494 34.7718 15.339 34.7653 15.1262L34.6963 11.8965C34.6942 11.764 34.4573 11.6597 34.1623 11.6614L26.9676 11.6936C26.4907 11.6964 26.2593 11.9556 26.5974 12.1044L28.8375 13.0906L25.2233 14.7465C25.0176 14.8407 25.02 14.9929 25.2285 15.0847L27.2506 15.9748C27.4592 16.0666 27.798 16.0646 28.0037 15.9704Z" fill="white"/>
<path id="Vector_4" d="M25.9642 18.6072L29.6292 20.2206L27.4202 21.2327C27.0868 21.3855 27.3293 21.6434 27.803 21.6392L34.9944 21.5887C35.2893 21.587 35.523 21.4799 35.5209 21.3475L35.4927 18.1161C35.4894 17.9019 34.9135 17.7995 34.5801 17.9523L32.3711 18.9644L28.706 17.351C28.4975 17.2592 28.1586 17.2612 27.953 17.3554L25.9589 18.269C25.7533 18.3632 25.7556 18.5154 25.9642 18.6072Z" fill="white"/>
<path id="Vector_5" d="M22.7918 18.3585L19.1775 20.0144L21.4176 21.0006C21.7557 21.1494 21.5213 21.4101 21.0475 21.4114L13.8559 21.445C13.561 21.4467 13.324 21.3424 13.3219 21.2099L13.2497 17.9788C13.2464 17.7646 13.819 17.6556 14.157 17.8044L16.3971 18.7905L20.0114 17.1346C20.217 17.0404 20.5559 17.0384 20.7644 17.1302L22.7865 18.0203C22.9951 18.1121 22.9974 18.2643 22.7918 18.3585Z" fill="white"/>
<path id="Vector_6" d="M20.3833 16.015L16.7182 14.4017L14.5092 15.4138C14.1758 15.5665 13.5968 15.4628 13.5966 15.25L13.5653 12.02C13.5632 11.8876 13.7969 11.7805 14.0918 11.7788L21.2863 11.7269C21.7632 11.7241 22.0025 11.9806 21.6691 12.1333L19.4601 13.1454L23.1251 14.7588C23.3337 14.8506 23.336 15.0028 23.1304 15.097L21.1363 16.0106C20.9307 16.1049 20.5918 16.1068 20.3833 16.015Z" fill="white"/>
</g>
</g>
</g>
<defs>
<linearGradient id="paint0_linear_248_3047" x1="5" y1="28" x2="46" y2="28" gradientUnits="userSpaceOnUse">
<stop stop-color="#2DA388"/>
<stop offset="0.505208" stop-color="#115B57"/>
<stop offset="1" stop-color="#0B3C43"/>
</linearGradient>
</defs>
</svg>
