<svg width="48" height="48" viewBox="0 0 48 48" fill="none" xmlns="http://www.w3.org/2000/svg">
<path fill-rule="evenodd" clip-rule="evenodd" d="M4.60576 19.9529C3.54564 18.8163 3 17.5982 3 16.3679C3 16.3588 3.00003 16.3496 3.00009 16.3405H3V16.3679V32.3263C3 37.0996 12.4458 40.9613 24.0721 40.9613C35.6984 40.9613 45.1442 37.0904 45.1442 32.3217V16.985C44.9927 18.0041 44.4667 19.0068 43.5842 19.9529C42.5241 21.0895 40.9703 22.1222 39.0114 22.9921C37.0526 23.862 34.7271 24.552 32.1677 25.0228C29.6083 25.4936 26.8652 25.7359 24.095 25.7359C21.3248 25.7359 18.5817 25.4936 16.0223 25.0228C13.4629 24.552 11.1374 23.862 9.17858 22.9921C7.21973 22.1222 5.66588 21.0895 4.60576 19.9529Z" fill="url(#paint0_linear_231_14415)"/>
<path fill-rule="evenodd" clip-rule="evenodd" d="M4.72476 27.0277C3.61919 25.8044 3 24.935 3 23.5V22C3 23.0112 4.78697 25.064 5.724 26.1008C6.66505 27.142 8.07642 28.1207 9.90897 28.9605C11.7377 29.7986 13.9245 30.4702 16.3476 30.9302C18.7696 31.39 21.3704 31.6275 24 31.6275C26.6296 31.6275 29.2304 31.39 31.6523 30.9302C34.0755 30.4702 36.2623 29.7986 38.091 28.9605C39.9236 28.1207 41.3349 27.142 42.276 26.1008C43.213 25.064 45 23.0112 45 22V23.5C45 24.935 44.3808 25.8044 43.2752 27.0277C42.1737 28.2465 40.5911 29.3212 38.6494 30.2111C36.7039 31.1027 34.41 31.8032 31.9019 32.2793C29.3926 32.7556 26.708 33 24 33C21.292 33 18.6074 32.7556 16.0981 32.2793C13.59 31.8032 11.2961 31.1027 9.35055 30.2111C7.40886 29.3212 5.82633 28.2465 4.72476 27.0277Z" fill="#46C1A5"/>
<path d="M3 16.5C3 17.7476 3.54318 18.9829 4.59853 20.1355C5.65388 21.2881 7.20073 22.3354 9.15076 23.2175C11.1008 24.0997 13.4158 24.7994 15.9636 25.2769C18.5115 25.7543 21.2422 26 24 26C26.7578 26 29.4885 25.7543 32.0364 25.2769C34.5842 24.7994 36.8992 24.0997 38.8492 23.2175C40.7993 22.3354 42.3461 21.2881 43.4015 20.1355C44.4568 18.9829 45 17.7476 45 16.5C45 15.2524 44.4568 14.0171 43.4015 12.8645C42.3461 11.7119 40.7993 10.6646 38.8492 9.78249C36.8992 8.90033 34.5842 8.20056 32.0364 7.72314C29.4885 7.24572 26.7578 7 24 7C21.2422 7 18.5115 7.24572 15.9636 7.72314C13.4158 8.20056 11.1008 8.90033 9.15076 9.78249C7.20073 10.6646 5.65388 11.7119 4.59853 12.8645C3.54318 14.0171 3 15.2524 3 16.5Z" fill="#5DCCB3"/>
<path d="M13.0366 20.5737H32.1684" stroke="white" stroke-width="1.6"/>
<path d="M34.9318 20.5738L30.4361 22.4799L30.4993 18.6677L34.9318 20.5738Z" fill="white"/>
<path d="M34.9927 16.8873H15.8609" stroke="white" stroke-width="1.6"/>
<path d="M13.0978 16.8874L17.5302 18.7935L17.5935 14.9813L13.0978 16.8874Z" fill="white"/>
<path d="M13.1587 13.2009H32.2904" stroke="white" stroke-width="1.6"/>
<path d="M35.0538 13.201L30.5582 15.1071L30.6214 11.2949L35.0538 13.201Z" fill="white"/>
<path d="M14.04 40V34.7056H15.5952C16.0601 34.7056 16.4315 34.8172 16.7095 35.0405C16.9875 35.2616 17.1265 35.5555 17.1265 35.9224C17.1265 36.214 17.0433 36.4715 16.877 36.6948C16.7129 36.9181 16.4862 37.0765 16.1968 37.1699V37.1836C16.5568 37.2246 16.8439 37.3613 17.0581 37.5938C17.2746 37.8239 17.3828 38.1167 17.3828 38.4722C17.3828 38.9279 17.2188 39.297 16.8906 39.5796C16.5648 39.8599 16.1466 40 15.6362 40H14.04ZM14.7236 35.3037V36.9614H15.3457C15.6761 36.9614 15.9347 36.8817 16.1216 36.7222C16.3107 36.5604 16.4053 36.3371 16.4053 36.0522C16.4053 35.5532 16.0726 35.3037 15.4072 35.3037H14.7236ZM14.7236 37.5562V39.4019H15.5439C15.9017 39.4019 16.1774 39.3198 16.3711 39.1558C16.5671 38.9894 16.665 38.7593 16.665 38.4653C16.665 37.8592 16.2537 37.5562 15.4312 37.5562H14.7236ZM20.2983 38.1611H18.2852V37.645H20.2983V38.1611ZM24.2563 40H21.4639V34.7056H22.1475V39.395H24.2563V40ZM28.0537 38.2808H25.4082C25.4196 38.6841 25.5301 38.9963 25.7397 39.2173C25.9494 39.436 26.2422 39.5454 26.6182 39.5454C27.042 39.5454 27.4305 39.4098 27.7837 39.1387V39.7368C27.451 39.9715 27.0101 40.0889 26.4609 40.0889C25.9141 40.0889 25.4868 39.9157 25.1792 39.5693C24.8739 39.223 24.7212 38.7422 24.7212 38.127C24.7212 37.5482 24.8887 37.0708 25.2236 36.6948C25.5609 36.3188 25.979 36.1309 26.478 36.1309C26.9725 36.1309 27.3587 36.2904 27.6367 36.6094C27.9147 36.9261 28.0537 37.3704 28.0537 37.9424V38.2808ZM27.3838 37.7441C27.3815 37.4023 27.3006 37.138 27.1411 36.9512C26.9816 36.7643 26.7572 36.6709 26.4678 36.6709C26.2012 36.6709 25.9699 36.77 25.7739 36.9683C25.5802 37.1665 25.4583 37.4251 25.4082 37.7441H27.3838ZM29.0347 36.4829C29.4106 36.2482 29.8447 36.1309 30.3369 36.1309C31.2484 36.1309 31.7041 36.6094 31.7041 37.5664V40H31.041V39.4155H31.0239C30.7619 39.8644 30.3757 40.0889 29.8652 40.0889C29.4984 40.0889 29.2067 39.9897 28.9902 39.7915C28.7738 39.5933 28.6655 39.3255 28.6655 38.9883C28.6655 38.2819 29.0837 37.8706 29.9199 37.7544L31.041 37.5972C31.041 36.9797 30.7858 36.6709 30.2754 36.6709C29.8219 36.6709 29.4084 36.8236 29.0347 37.1289V36.4829ZM30.1558 38.2227C29.8459 38.2637 29.6317 38.3411 29.5132 38.4551C29.397 38.569 29.3389 38.7285 29.3389 38.9336C29.3389 39.1136 29.4027 39.2606 29.5303 39.3745C29.6579 39.4884 29.8265 39.5454 30.0361 39.5454C30.3278 39.5454 30.5682 39.4429 30.7573 39.2378C30.9465 39.0327 31.041 38.7752 31.041 38.4653V38.103L30.1558 38.2227ZM34.7529 34.9756C34.6276 34.9095 34.492 34.8765 34.3462 34.8765C33.9269 34.8765 33.7173 35.1362 33.7173 35.6558V36.2197H34.6025V36.7734H33.7173V40H33.0542V36.7734H32.4082V36.2197H33.0542V35.625C33.0542 35.2194 33.1704 34.9015 33.4028 34.6714C33.6375 34.439 33.9349 34.3228 34.2949 34.3228C34.4863 34.3228 34.639 34.3444 34.7529 34.3877V34.9756Z" fill="white"/>
<defs>
<linearGradient id="paint0_linear_231_14415" x1="4.97664" y1="28.4285" x2="45.4977" y2="28.4285" gradientUnits="userSpaceOnUse">
<stop stop-color="#2DA388"/>
<stop offset="0.505208" stop-color="#115B57"/>
<stop offset="1" stop-color="#0B3C43"/>
</linearGradient>
</defs>
</svg>
