<svg width="80" height="80" viewBox="0 0 80 80" fill="none" xmlns="http://www.w3.org/2000/svg">
<g id="Frame 392">
<g id="&#232;&#131;&#140;-&#228;&#186;&#145;-&#230;&#143;&#143;&#232;&#190;&#185;" filter="url(#filter0_i_329_1911)">
<path fill-rule="evenodd" clip-rule="evenodd" d="M59.1494 32.6225C66.5309 37.722 72.0004 47.5508 72.0004 56.7884C72.0004 64.2129 68.4027 69.6428 62.6664 70.876L60.6934 71.3002C59.2803 72.0529 57.6469 72.4178 55.8681 72.3376L53.4867 72.8495C51.5693 73.2618 49.4675 73.1402 47.3109 72.4923C43.7512 71.4229 40.4348 69.0879 37.6954 66.0359L29.2754 62.8099C21.4425 59.8088 15.0928 50.0879 15.0928 41.0975C15.0928 37.6109 16.0477 34.7463 17.6738 32.7206C16.6676 30.6015 16.052 28.4318 16.052 26.3397C16.052 17.492 24.4721 14.6109 30.9405 17.0893C31.13 17.1619 31.3198 17.2416 31.5095 17.3284C31.5833 16.3378 31.7401 15.4264 31.9899 14.6146C34.6282 6.03981 44.9557 7.47242 50.4566 10.8569C56.5196 14.5873 60.1619 25.5308 59.1494 32.6225Z" fill="url(#paint0_linear_329_1911)"/>
</g>
<g id="Union" filter="url(#filter1_d_329_1911)">
<path fill-rule="evenodd" clip-rule="evenodd" d="M51.8844 33.5462C58.2644 39.5894 62.6556 48.805 62.6556 57.5154C62.6556 69.7186 54.0366 76.309 43.4046 72.2355L43.2112 72.1614L43.1784 72.1489L21.7904 63.9544C13.6219 60.8247 7 50.6871 7 41.3115C7 34.9025 10.0943 30.5085 14.6617 29.3692C14.6545 29.3197 14.6473 29.2701 14.6403 29.2205C13.6683 22.3387 18.2354 16.4146 23.4054 17.561C24.5848 17.8225 25.6771 18.3112 26.6759 19.0186C28.7227 11.2656 34.152 7.24113 39.0249 9.29459C48.5456 13.3067 52.2206 23.6526 51.8844 33.5462Z" fill="#D5D5D5"/>
</g>
<g id="CN2">
<path d="M28.3872 46.3514L29.6709 47.3028C29.2925 48.7021 28.7182 49.6357 27.9481 50.1034C27.1838 50.5671 26.283 50.6003 25.2457 50.2028C24.334 49.8535 23.568 49.3068 22.9476 48.5627C22.333 47.8145 21.8507 46.8107 21.5007 45.5512C21.1562 44.2937 21.0282 42.9161 21.1166 41.4181C21.2039 39.9385 21.4824 38.7666 21.9522 37.9024C22.4277 37.0342 23.0329 36.4752 23.7678 36.2253C24.5031 35.9693 25.3048 36.0076 26.1728 36.3402C27.1227 36.7041 27.9192 37.3501 28.5623 38.2779C29.2057 39.1997 29.626 40.3549 29.8232 41.7434L28.5214 41.6667C28.1951 39.6284 27.3741 38.3573 26.0584 37.8532C25.4033 37.6022 24.8243 37.5742 24.3215 37.7692C23.8191 37.9581 23.3997 38.3945 23.0635 39.0785C22.7327 39.7646 22.5314 40.716 22.4596 41.9327C22.351 43.773 22.5588 45.2656 23.0829 46.4106C23.6075 47.5494 24.3502 48.3029 25.311 48.671C26.0207 48.9429 26.6488 48.896 27.1951 48.5301C27.7473 48.1602 28.1447 47.434 28.3872 46.3514Z" fill="#6C6C6C"/>
<path d="M31.0079 52.1761L31.8014 38.7312L33.1362 39.2426L37.6886 51.7815L38.3116 41.2255L39.5563 41.7024L38.7628 55.1473L37.428 54.6358L32.8844 42.091L32.2608 52.6561L31.0079 52.1761Z" fill="#6C6C6C"/>
<path d="M46.9225 56.6511L46.8289 58.2377L40.3187 55.7434C40.3402 55.0951 40.5546 54.4426 40.9618 53.7858C41.3745 53.1311 42.0959 52.4478 43.126 51.7358C44.3305 50.9093 45.1276 50.2206 45.5174 49.6697C45.9075 49.1126 46.1201 48.5376 46.1551 47.9445C46.1955 47.2597 46.0482 46.6343 45.7132 46.0683C45.3839 45.4982 44.9573 45.1128 44.4332 44.912C43.8709 44.6966 43.3959 44.7522 43.0081 45.0788C42.6204 45.4054 42.4009 46.0028 42.3497 46.871L41.1152 46.2199C41.2787 44.9633 41.6607 44.1186 42.2613 43.686C42.8677 43.2493 43.6322 43.2077 44.5548 43.5612C45.5593 43.9461 46.2958 44.6159 46.7642 45.5707C47.2381 46.5275 47.4465 47.4889 47.3895 48.455C47.339 49.3109 47.0884 50.0559 46.6379 50.6898C46.1877 51.3177 45.359 52.0693 44.1517 52.9447C43.3824 53.494 42.8824 53.8777 42.6518 54.0957C42.4267 54.3158 42.2398 54.5506 42.091 54.8L46.9225 56.6511Z" fill="#6C6C6C"/>
</g>
</g>
<defs>
<filter id="filter0_i_329_1911" x="15.0928" y="8.20752" width="56.9077" height="66.8813" filterUnits="userSpaceOnUse" color-interpolation-filters="sRGB">
<feFlood flood-opacity="0" result="BackgroundImageFix"/>
<feBlend mode="normal" in="SourceGraphic" in2="BackgroundImageFix" result="shape"/>
<feColorMatrix in="SourceAlpha" type="matrix" values="0 0 0 0 0 0 0 0 0 0 0 0 0 0 0 0 0 0 127 0" result="hardAlpha"/>
<feOffset dy="2"/>
<feGaussianBlur stdDeviation="1"/>
<feComposite in2="hardAlpha" operator="arithmetic" k2="-1" k3="1"/>
<feColorMatrix type="matrix" values="0 0 0 0 0 0 0 0 0 0 0 0 0 0 0 0 0 0 0.15 0"/>
<feBlend mode="normal" in2="shape" result="effect1_innerShadow_329_1911"/>
</filter>
<filter id="filter1_d_329_1911" x="6" y="8.76221" width="59.6558" height="68.6782" filterUnits="userSpaceOnUse" color-interpolation-filters="sRGB">
<feFlood flood-opacity="0" result="BackgroundImageFix"/>
<feColorMatrix in="SourceAlpha" type="matrix" values="0 0 0 0 0 0 0 0 0 0 0 0 0 0 0 0 0 0 127 0" result="hardAlpha"/>
<feOffset dx="1" dy="2"/>
<feGaussianBlur stdDeviation="1"/>
<feComposite in2="hardAlpha" operator="out"/>
<feColorMatrix type="matrix" values="0 0 0 0 0.0162326 0 0 0 0 0.124592 0 0 0 0 0.354167 0 0 0 0.2 0"/>
<feBlend mode="normal" in2="BackgroundImageFix" result="effect1_dropShadow_329_1911"/>
<feBlend mode="normal" in="SourceGraphic" in2="effect1_dropShadow_329_1911" result="shape"/>
</filter>
<linearGradient id="paint0_linear_329_1911" x1="43.7871" y1="10.4715" x2="83.0928" y2="35.6793" gradientUnits="userSpaceOnUse">
<stop offset="0.00347201" stop-color="#F8F8F8"/>
<stop offset="0.365468" stop-color="#767676"/>
<stop offset="0.707816" stop-color="#999999"/>
<stop offset="1" stop-color="#565656"/>
</linearGradient>
</defs>
</svg>
