<svg width="55" height="49" viewBox="0 0 55 49" fill="none" xmlns="http://www.w3.org/2000/svg">
<g id="Frame 376">
<g id="Group 424">
<path id="Rectangle 293" d="M6 0H48V33H6V0Z" fill="url(#paint0_linear_277_2280)"/>
<path id="Rectangle 294" d="M14 0H41V34H14V0Z" fill="url(#paint1_linear_277_2280)"/>
<path id="Vector" d="M11.1077 42.6555C10.3061 41.8709 10 41.1378 10 40.5C10 39.8622 10.3061 39.1291 11.1077 38.3445C11.9137 37.5557 13.1497 36.7901 14.7942 36.1234C16.4312 35.4598 18.3978 34.9245 20.586 34.5571C22.7722 34.19 25.1223 34 27.5 34C29.8777 34 32.2278 34.19 34.414 34.5571C36.6022 34.9245 38.5688 35.4598 40.2058 36.1234C41.8503 36.7901 43.0863 37.5557 43.8923 38.3445C44.6939 39.1291 45 39.8622 45 40.5C45 41.1378 44.6939 41.8709 43.8923 42.6555C43.0863 43.4443 41.8503 44.2099 40.2058 44.8766C38.5688 45.5402 36.6022 46.0755 34.414 46.4429C32.2278 46.81 29.8777 47 27.5 47C25.1223 47 22.7722 46.81 20.586 46.4429C18.3978 46.0755 16.4312 45.5402 14.7942 44.8766C13.1497 44.2099 11.9137 43.4443 11.1077 42.6555Z" stroke="url(#paint2_linear_277_2280)" stroke-width="2"/>
<g id="Group 373">
<g id="Group 370">
<g id="Group 325">
<g id="Union" filter="url(#filter0_f_277_2280)">
<path fill-rule="evenodd" clip-rule="evenodd" d="M6.00297 18.3403H6V18.5V34.3262C6 39.0995 15.4458 42.9612 27.0721 42.9612C38.6984 42.9612 48.1442 39.0903 48.1442 34.3216V18.3403H47.997C47.9527 17.1471 47.4118 15.9679 46.4015 14.8645C45.3461 13.7119 43.7993 12.6646 41.8492 11.7825C39.8992 10.9003 37.5842 10.2006 35.0364 9.72314C32.4885 9.24572 29.7578 9 27 9C24.2422 9 21.5115 9.24572 18.9636 9.72314C16.4158 10.2006 14.1008 10.9003 12.1508 11.7825C10.2007 12.6646 8.65388 13.7119 7.59853 14.8645C6.58822 15.9679 6.0473 17.1471 6.00297 18.3403Z" fill="#31FFD1"/>
</g>
<path id="Subtract" fill-rule="evenodd" clip-rule="evenodd" d="M7.60576 21.9528C6.54564 20.8162 6 19.598 6 18.3678C6 18.3587 6.00003 18.3495 6.00009 18.3403H6V18.3678V34.3262C6 39.0995 15.4458 42.9612 27.0721 42.9612C38.6984 42.9612 48.1442 39.0903 48.1442 34.3216V18.9848C47.9927 20.0039 47.4667 21.0066 46.5842 21.9528C45.5241 23.0893 43.9703 24.122 42.0114 24.9919C40.0526 25.8618 37.7271 26.5519 35.1677 27.0226C32.6083 27.4934 29.8652 27.7357 27.095 27.7357C24.3248 27.7357 21.5817 27.4934 19.0223 27.0226C16.4629 26.5519 14.1374 25.8618 12.1786 24.9919C10.2197 24.122 8.66588 23.0893 7.60576 21.9528Z" fill="url(#paint3_linear_277_2280)"/>
<path id="Vector (Stroke)" fill-rule="evenodd" clip-rule="evenodd" d="M7.72476 29.0277C6.61919 27.8044 6 26.935 6 25.5V24C6 25.0112 7.78697 27.064 8.724 28.1008C9.66505 29.142 11.0764 30.1207 12.909 30.9605C14.7377 31.7986 16.9245 32.4702 19.3476 32.9302C21.7696 33.39 24.3704 33.6275 27 33.6275C29.6296 33.6275 32.2304 33.39 34.6523 32.9302C37.0755 32.4702 39.2623 31.7986 41.091 30.9605C42.9236 30.1207 44.3349 29.142 45.276 28.1008C46.213 27.064 48 25.0112 48 24V25.5C48 26.935 47.3808 27.8044 46.2752 29.0277C45.1737 30.2465 43.5911 31.3212 41.6494 32.2111C39.7039 33.1027 37.41 33.8032 34.9019 34.2793C32.3926 34.7556 29.708 35 27 35C24.292 35 21.6074 34.7556 19.0981 34.2793C16.59 33.8032 14.2961 33.1027 12.3506 32.2111C10.4089 31.3212 8.82633 30.2465 7.72476 29.0277Z" fill="#46C1A5"/>
<path id="Vector_2" d="M6 18.5C6 19.7476 6.54318 20.9829 7.59853 22.1355C8.65388 23.2881 10.2007 24.3354 12.1508 25.2175C14.1008 26.0997 16.4158 26.7994 18.9636 27.2769C21.5115 27.7543 24.2422 28 27 28C29.7578 28 32.4885 27.7543 35.0364 27.2769C37.5842 26.7994 39.8992 26.0997 41.8492 25.2175C43.7993 24.3354 45.3461 23.2881 46.4015 22.1355C47.4568 20.9829 48 19.7476 48 18.5C48 17.2524 47.4568 16.0171 46.4015 14.8645C45.3461 13.7119 43.7993 12.6646 41.8492 11.7825C39.8992 10.9003 37.5842 10.2006 35.0364 9.72314C32.4885 9.24572 29.7578 9 27 9C24.2422 9 21.5115 9.24572 18.9636 9.72314C16.4158 10.2006 14.1008 10.9003 12.1508 11.7825C10.2007 12.6646 8.65388 13.7119 7.59853 14.8645C6.54318 16.0171 6 17.2524 6 18.5Z" fill="#5DCCB3"/>
</g>
</g>
</g>
<path id="Vector_3" d="M36.3837 21.2804C37.4043 21.4349 38.0874 21.9988 37.9909 22.6231C37.8835 22.9295 37.6636 23.2 37.3622 23.3963C37.0608 23.5927 36.6933 23.705 36.3114 23.7174C36.1776 23.7241 36.0434 23.7241 35.9096 23.7174C35.4805 23.7624 35.0453 23.6924 34.6669 23.5174C34.2885 23.3425 33.9864 23.0716 33.8041 22.744L30.9352 21.8444C30.8458 21.8232 30.7656 21.7809 30.7043 21.7225C30.643 21.6642 30.6032 21.5922 30.5897 21.5154V20.3876H27.6404V21.9182C28.133 21.9735 28.6004 22.1329 28.9985 22.3814C29.2259 22.5024 29.4107 22.6716 29.5339 22.8719C29.6571 23.0722 29.7142 23.2963 29.6995 23.5211C29.6848 23.746 29.5987 23.9635 29.4501 24.1514C29.3015 24.3392 29.0957 24.4907 28.8539 24.5901C28.3122 24.8659 27.6881 25.0079 27.0538 24.9997C26.756 25.0009 26.4591 24.9716 26.1698 24.9124C25.8208 24.8624 25.4898 24.747 25.2017 24.5749C24.9136 24.4029 24.6759 24.1785 24.5063 23.9188V23.8248C24.1527 22.9924 25.0126 22.1465 26.4189 21.9384V20.3876H23.4536V21.5154C23.4433 21.5912 23.4065 21.6627 23.348 21.7212C23.2894 21.7797 23.2116 21.8225 23.1241 21.8444L20.2391 22.744C20.0652 23.0737 19.7712 23.3492 19.3989 23.5312C19.0267 23.7133 18.5951 23.7925 18.1658 23.7577C17.7312 23.7926 17.2943 23.7139 16.9157 23.5322C16.537 23.3506 16.2353 23.0752 16.0523 22.744C15.7952 22.0726 16.5104 21.4013 17.6595 21.2603C17.8345 21.2336 18.012 21.2201 18.1899 21.22C18.5431 21.202 18.8964 21.2534 19.2216 21.37C19.5467 21.4866 19.8347 21.6651 20.0624 21.8914L22.1839 21.22V20.3271H20.1507C17.9408 20.213 16.213 19.1657 16.0845 17.8566C15.9559 16.5475 17.4747 15.3995 19.6445 15.1713C19.7168 14.03 21.2999 13.1572 23.2205 13.1572H23.3572C23.692 12.8808 24.0806 12.6538 24.5063 12.4859C25.2859 12.1712 26.1398 12.0061 27.0056 12.0025C28.3644 11.9636 29.6868 12.3737 30.6861 13.1438H30.8227C32.7594 13.1438 34.3425 14.0434 34.4068 15.1578C36.5686 15.4129 38.0874 16.5744 37.9668 17.8835C37.8463 19.1926 36.0864 20.26 33.9006 20.3674H31.8674V21.267L33.9809 21.9384C34.2086 21.7121 34.4966 21.5335 34.8217 21.417C35.1469 21.3004 35.5002 21.249 35.8533 21.267C36.0303 21.2582 36.2078 21.2627 36.3837 21.2804ZM26.8931 16.0306C27.0216 16.0306 27.102 15.9567 27.0216 15.9097L25.0608 14.755H24.8197L22.8911 15.9232C22.8027 15.9701 22.8911 16.044 22.9955 16.044H24.3295C24.4179 16.044 24.4661 16.0776 24.4742 16.1246V18.7159C24.4859 18.7394 24.5062 18.7591 24.5322 18.7724C24.5582 18.7857 24.5885 18.7917 24.6188 18.7898H25.2296C25.318 18.7898 25.3742 18.7562 25.3823 18.7159V16.1514C25.3823 16.1044 25.4466 16.0709 25.5269 16.0709H26.8931M31.2969 17.5948C31.3772 17.5478 31.2969 17.4739 31.1924 17.4739H29.8825C29.8102 17.4739 29.7298 17.4404 29.7298 17.3934V14.8222C29.7209 14.798 29.7027 14.777 29.678 14.7624C29.6533 14.7478 29.6234 14.7405 29.5932 14.7416H28.9744L28.8619 14.8289V17.3732C28.8449 17.3914 28.8228 17.4058 28.7976 17.4151C28.7724 17.4245 28.7448 17.4286 28.7173 17.427H27.3511C27.2306 17.427 27.1502 17.5008 27.2306 17.5478L29.1351 18.7159H29.3682L31.2969 17.5478" fill="white"/>
</g>
<path id="&#229;&#133;&#182;&#228;&#187;&#150;" d="M28.3223 41.7812C27.9326 41.9863 27.4438 42.0889 26.856 42.0889C26.0972 42.0889 25.491 41.8485 25.0376 41.3677C24.5841 40.8846 24.3574 40.2466 24.3574 39.4536C24.3574 38.6014 24.6126 37.9155 25.123 37.396C25.6335 36.8765 26.2817 36.6167 27.0679 36.6167C27.5737 36.6167 27.9919 36.6885 28.3223 36.832V37.5464C27.944 37.3368 27.5282 37.2319 27.0747 37.2319C26.4845 37.2319 26.0037 37.429 25.6323 37.8232C25.2609 38.2152 25.0752 38.745 25.0752 39.4126C25.0752 40.0461 25.2484 40.5496 25.5947 40.9233C25.9411 41.2948 26.3945 41.4805 26.9551 41.4805C27.4792 41.4805 27.9349 41.362 28.3223 41.125V41.7812ZM30.0654 40.021V42H29.3818V36.7056H30.8857C31.4577 36.7056 31.9009 36.8434 32.2153 37.1191C32.5321 37.3949 32.6904 37.7891 32.6904 38.3018C32.6904 38.8213 32.5059 39.2428 32.1367 39.5664C31.7676 39.8877 31.3062 40.0392 30.7524 40.021H30.0654ZM30.0654 37.3071V39.4194H30.6978C31.1147 39.4194 31.4315 39.326 31.6479 39.1392C31.8644 38.95 31.9727 38.68 31.9727 38.3291C31.9727 37.6478 31.5693 37.3071 30.7627 37.3071H30.0654Z" fill="white"/>
</g>
<defs>
<filter id="filter0_f_277_2280" x="0" y="3" width="54.144" height="45.9609" filterUnits="userSpaceOnUse" color-interpolation-filters="sRGB">
<feFlood flood-opacity="0" result="BackgroundImageFix"/>
<feBlend mode="normal" in="SourceGraphic" in2="BackgroundImageFix" result="shape"/>
<feGaussianBlur stdDeviation="3" result="effect1_foregroundBlur_277_2280"/>
</filter>
<linearGradient id="paint0_linear_277_2280" x1="27.5" y1="0" x2="27.5" y2="33" gradientUnits="userSpaceOnUse">
<stop stop-color="#1E3349"/>
<stop offset="1" stop-color="#5DCCB3"/>
</linearGradient>
<linearGradient id="paint1_linear_277_2280" x1="27.8214" y1="0" x2="27.8214" y2="34" gradientUnits="userSpaceOnUse">
<stop stop-color="#1E3349"/>
<stop offset="1" stop-color="#73FFDF"/>
</linearGradient>
<linearGradient id="paint2_linear_277_2280" x1="27" y1="37.4118" x2="27" y2="48" gradientUnits="userSpaceOnUse">
<stop stop-color="#7EF8DC"/>
<stop offset="1" stop-color="#0AD8A9"/>
</linearGradient>
<linearGradient id="paint3_linear_277_2280" x1="8.02835" y1="30.4284" x2="49.6096" y2="30.4284" gradientUnits="userSpaceOnUse">
<stop stop-color="#2DA388"/>
<stop offset="0.505208" stop-color="#115B57"/>
<stop offset="1" stop-color="#0B3C43"/>
</linearGradient>
</defs>
</svg>
