<svg width="48" height="49" viewBox="0 0 48 49" fill="none" xmlns="http://www.w3.org/2000/svg">
<g id="Frame 270">
<g id="Group 418">
<g id="Group 325">
<path id="Subtract" fill-rule="evenodd" clip-rule="evenodd" d="M4.60576 20.4528C3.54564 19.3162 3 18.098 3 16.8678C3 16.8587 3.00003 16.8495 3.00009 16.8403H3V16.8678V32.8262C3 37.5995 12.4458 41.4612 24.0721 41.4612C35.6984 41.4612 45.1442 37.5903 45.1442 32.8216V17.4848C44.9927 18.5039 44.4667 19.5066 43.5842 20.4528C42.5241 21.5893 40.9703 22.622 39.0114 23.4919C37.0526 24.3618 34.7271 25.0519 32.1677 25.5226C29.6083 25.9934 26.8652 26.2357 24.095 26.2357C21.3248 26.2357 18.5817 25.9934 16.0223 25.5226C13.4629 25.0519 11.1374 24.3618 9.17858 23.4919C7.21973 22.622 5.66588 21.5893 4.60576 20.4528Z" fill="url(#paint0_linear_209_5415)"/>
<path id="Vector (Stroke)" fill-rule="evenodd" clip-rule="evenodd" d="M4.72476 27.5277C3.61919 26.3044 3 25.435 3 24V22.5C3 23.5112 4.78697 25.564 5.724 26.6008C6.66505 27.642 8.07642 28.6207 9.90897 29.4605C11.7377 30.2986 13.9245 30.9702 16.3476 31.4302C18.7696 31.89 21.3704 32.1275 24 32.1275C26.6296 32.1275 29.2304 31.89 31.6523 31.4302C34.0755 30.9702 36.2623 30.2986 38.091 29.4605C39.9236 28.6207 41.3349 27.642 42.276 26.6008C43.213 25.564 45 23.5112 45 22.5V24C45 25.435 44.3808 26.3044 43.2752 27.5277C42.1737 28.7465 40.5911 29.8212 38.6494 30.7111C36.7039 31.6027 34.41 32.3032 31.9019 32.7793C29.3926 33.2556 26.708 33.5 24 33.5C21.292 33.5 18.6074 33.2556 16.0981 32.7793C13.59 32.3032 11.2961 31.6027 9.35055 30.7111C7.40886 29.8212 5.82633 28.7465 4.72476 27.5277Z" fill="#46C1A5"/>
<path id="Vector" d="M3 17C3 18.2476 3.54318 19.4829 4.59853 20.6355C5.65388 21.7881 7.20073 22.8354 9.15076 23.7175C11.1008 24.5997 13.4158 25.2994 15.9636 25.7769C18.5115 26.2543 21.2422 26.5 24 26.5C26.7578 26.5 29.4885 26.2543 32.0364 25.7769C34.5842 25.2994 36.8992 24.5997 38.8492 23.7175C40.7993 22.8354 42.3461 21.7881 43.4015 20.6355C44.4568 19.4829 45 18.2476 45 17C45 15.7524 44.4568 14.5171 43.4015 13.3645C42.3461 12.2119 40.7993 11.1646 38.8492 10.2825C36.8992 9.40033 34.5842 8.70056 32.0364 8.22314C29.4885 7.74572 26.7578 7.5 24 7.5C21.2422 7.5 18.5115 7.74572 15.9636 8.22314C13.4158 8.70056 11.1008 9.40033 9.15076 10.2825C7.20073 11.1646 5.65388 12.2119 4.59853 13.3645C3.54318 14.5171 3 15.7524 3 17Z" fill="#5DCCB3"/>
</g>
<g id="Group 383">
<g id="Group 381">
<g id="Group 379">
<path id="Vector_2" d="M16.8324 13.9072C16.9086 13.9072 16.9771 13.9529 16.9771 14.0138V14.8815V16.1755V17.0432C16.9771 17.1041 16.9009 17.1498 16.8248 17.1498C16.8 17.157 16.7736 17.157 16.7487 17.1498L13.0799 15.6274C12.9734 15.5818 12.9734 15.4828 13.0799 15.4372L16.8248 13.9148L16.8324 13.9072Z" fill="white"/>
<path id="Vector_3" d="M20.8592 14.8813V18.2761H19.0401V16.1753H16.9316L16.9545 14.8813H20.8592Z" fill="white"/>
</g>
<g id="Group 377">
<path id="Vector_4" d="M27.8839 14.5469V16.6477H29.9999L29.9695 17.9416H26.0571V14.5469H27.8839Z" fill="white"/>
<path id="Vector_5" d="M30.1751 15.6812C30.2 15.674 30.2264 15.674 30.2512 15.6812L33.92 17.2035C34.0266 17.2492 34.0266 17.3481 33.92 17.3938L30.1751 18.9161H30.099C30.0229 18.9161 29.9468 18.8704 29.9468 18.8019V17.9418V16.6478V15.7801C30.0229 15.7268 30.099 15.6812 30.1751 15.6812Z" fill="white"/>
</g>
</g>
<g id="Group 382">
<g id="Group 380">
<path id="Vector_6" d="M24.8239 8.27509C24.8488 8.27386 24.8737 8.27877 24.8962 8.28939C24.9188 8.30001 24.9384 8.31601 24.9533 8.33598L27.0998 10.9848C27.1531 11.0533 27.0998 11.1447 26.9704 11.1447H25.7449H23.9181H22.6851C22.5633 11.1447 22.4948 11.0533 22.5481 10.9848L24.6945 8.38165C24.706 8.35485 24.7238 8.33119 24.7463 8.31265C24.7688 8.29411 24.7954 8.28123 24.8239 8.27509Z" fill="white"/>
<path id="Vector_7" d="M23.9104 11.0991L25.7372 11.122V13.885H20.9419V12.591H23.9104V11.0991Z" fill="white"/>
</g>
<g id="Group 378">
<path id="Vector_8" d="M26.4909 18.9385V20.2248H23.5148V21.7243L21.688 21.7015V18.9385H26.4909Z" fill="white"/>
<path id="Vector_9" d="M20.4396 21.6865H21.6651H23.4919H24.7174C24.8391 21.6865 24.9153 21.7779 24.8544 21.8464L22.7231 24.4952C22.7055 24.5135 22.6841 24.5277 22.6605 24.5369C22.6368 24.5461 22.6114 24.5501 22.5861 24.5485C22.563 24.55 22.5399 24.5459 22.5187 24.5367C22.4975 24.5274 22.4789 24.5132 22.4643 24.4952L20.3179 21.8464C20.2722 21.7779 20.3483 21.6865 20.4396 21.6865Z" fill="white"/>
</g>
</g>
</g>
</g>
<path id="&#229;&#133;&#182;&#228;&#187;&#150;" d="M13.0103 40.5V35.2056H14.521C15.3231 35.2056 15.9896 35.4391 16.5205 35.9062C17.0537 36.3734 17.3203 37 17.3203 37.7861C17.3203 38.6064 17.0537 39.2638 16.5205 39.7583C15.9896 40.2528 15.3049 40.5 14.4663 40.5H13.0103ZM13.6938 35.814V39.895H14.4629C15.1351 39.895 15.6592 39.7116 16.0352 39.3447C16.4134 38.9779 16.6025 38.464 16.6025 37.8032C16.6025 37.1424 16.4089 36.6457 16.0215 36.313C15.6341 35.9803 15.1248 35.814 14.4937 35.814H13.6938ZM21.9653 40.2812C21.5757 40.4863 21.0869 40.5889 20.499 40.5889C19.7402 40.5889 19.1341 40.3485 18.6807 39.8677C18.2272 39.3846 18.0005 38.7466 18.0005 37.9536C18.0005 37.1014 18.2557 36.4155 18.7661 35.896C19.2765 35.3765 19.9248 35.1167 20.7109 35.1167C21.2168 35.1167 21.6349 35.1885 21.9653 35.332V36.0464C21.5871 35.8368 21.1712 35.7319 20.7178 35.7319C20.1276 35.7319 19.6468 35.929 19.2754 36.3232C18.904 36.7152 18.7183 37.245 18.7183 37.9126C18.7183 38.5461 18.8914 39.0496 19.2378 39.4233C19.5841 39.7948 20.0376 39.9805 20.5981 39.9805C21.1222 39.9805 21.578 39.862 21.9653 39.625V40.2812ZM27.0273 40.1377C26.4987 40.4385 25.9017 40.5889 25.2363 40.5889C24.4707 40.5889 23.8532 40.3473 23.3838 39.8643C22.9167 39.3789 22.6831 38.7318 22.6831 37.9229C22.6831 37.1048 22.9417 36.4326 23.459 35.9062C23.9762 35.3799 24.6393 35.1167 25.4482 35.1167C26.0202 35.1167 26.5044 35.2078 26.9009 35.3901V36.1284C26.4771 35.8618 25.9723 35.7285 25.3867 35.7285C24.8102 35.7285 24.3351 35.9256 23.9614 36.3198C23.5877 36.714 23.4009 37.2336 23.4009 37.8784C23.4009 38.5415 23.5729 39.0576 23.917 39.4268C24.2611 39.7959 24.7259 39.9805 25.3115 39.9805C25.7148 39.9805 26.0578 39.903 26.3403 39.748V38.3159H25.1919V37.7109H27.0273V40.1377ZM34.5845 35.2056L33.1011 40.5H32.3047L31.2383 36.6855C31.1904 36.5124 31.1619 36.3301 31.1528 36.1387H31.1392C31.1255 36.3278 31.0936 36.5078 31.0435 36.6787L29.9668 40.5H29.1772L27.6426 35.2056H28.3979L29.478 39.2046C29.5259 39.3846 29.5544 39.5658 29.5635 39.748H29.584C29.5954 39.6113 29.633 39.4302 29.6968 39.2046L30.8418 35.2056H31.5151L32.6089 39.2354C32.6453 39.3675 32.675 39.5361 32.6978 39.7412H32.7114C32.7228 39.5931 32.7559 39.4199 32.8105 39.2217L33.8496 35.2056H34.5845Z" fill="white"/>
</g>
<defs>
<linearGradient id="paint0_linear_209_5415" x1="4.97664" y1="28.9284" x2="45.4977" y2="28.9284" gradientUnits="userSpaceOnUse">
<stop stop-color="#2DA388"/>
<stop offset="0.505208" stop-color="#115B57"/>
<stop offset="1" stop-color="#0B3C43"/>
</linearGradient>
</defs>
</svg>
