<svg width="48" height="48" viewBox="0 0 48 48" fill="none" xmlns="http://www.w3.org/2000/svg">
<g id="Frame 270">
<g id="Group 430">
<path id="Vector" d="M32.7254 24.9624C32.7606 24.9405 32.7999 24.927 32.8404 24.9228C32.881 24.9186 32.9219 24.9239 32.9604 24.9383C32.9989 24.9526 33.034 24.9757 33.0633 25.006C33.0927 25.0363 33.1155 25.073 33.1304 25.1136L33.5873 26.3067L33.9849 27.3606C34.0003 27.409 34.004 27.4608 33.9956 27.5111C33.9873 27.5615 33.9671 27.6087 33.9371 27.6485C33.907 27.6882 33.868 27.7191 33.8237 27.7383C33.7795 27.7575 33.7314 27.7644 33.6839 27.7583L31.6815 27.472L30.0208 27.2373C29.9614 27.2299 29.9057 27.2025 29.8618 27.1591C29.8178 27.1156 29.7879 27.0584 29.7764 26.9956C29.7648 26.9327 29.7721 26.8676 29.7974 26.8096C29.8226 26.7515 29.8644 26.7036 29.9167 26.6726C29.96 26.6461 29.9959 26.6079 30.0209 26.5618C30.0459 26.5157 30.0591 26.4634 30.0591 26.4101C30.0591 26.3568 30.0459 26.3044 30.0209 26.2583C29.9959 26.2122 29.96 26.174 29.9167 26.1476L25.3396 23.3557C25.2964 23.3293 25.2604 23.2911 25.2354 23.245C25.2104 23.1989 25.1973 23.1465 25.1973 23.0932C25.1973 23.0399 25.2104 22.9876 25.2354 22.9415C25.2604 22.8954 25.2964 22.8572 25.3396 22.8307L26.2982 22.2342C26.3415 22.2069 26.3909 22.1925 26.4412 22.1925C26.4915 22.1925 26.5409 22.2069 26.5842 22.2342L31.7223 25.4158C31.7657 25.4431 31.8151 25.4575 31.8654 25.4575C31.9157 25.4575 31.965 25.4431 32.0084 25.4158L32.7254 24.9624ZM25.9118 29.202C25.947 29.18 25.9862 29.1665 26.0268 29.1624C26.0673 29.1582 26.1083 29.1635 26.1467 29.1778C26.1852 29.1922 26.2203 29.2153 26.2497 29.2455C26.279 29.2758 26.3019 29.3125 26.3167 29.3531L26.77 30.5462L27.1675 31.6001C27.1829 31.6485 27.1866 31.7003 27.1783 31.7507C27.1699 31.801 27.1498 31.8483 27.1197 31.888C27.0896 31.9277 27.0506 31.9586 27.0064 31.9779C26.9621 31.9971 26.914 32.0039 26.8666 31.9978L24.8641 31.7155L23.2071 31.5246C23.1477 31.5172 23.092 31.4898 23.0481 31.4463C23.0042 31.4029 22.9743 31.3456 22.9627 31.2828C22.9511 31.22 22.9585 31.1549 22.9837 31.0968C23.009 31.0388 23.0508 30.9908 23.1031 30.9598C23.1463 30.9334 23.1823 30.8952 23.2073 30.8491C23.2323 30.803 23.2454 30.7506 23.2454 30.6973C23.2454 30.644 23.2323 30.5917 23.2073 30.5456C23.1823 30.4995 23.1463 30.4613 23.1031 30.4349L18.526 27.5952C18.4827 27.5688 18.4468 27.5306 18.4218 27.4845C18.3968 27.4384 18.3836 27.3861 18.3836 27.3328C18.3836 27.2795 18.3968 27.2271 18.4218 27.181C18.4468 27.1349 18.4827 27.0967 18.526 27.0703L19.4845 26.4737C19.5279 26.4464 19.5772 26.4321 19.6275 26.4321C19.6778 26.4321 19.7272 26.4464 19.7706 26.4737L24.9087 29.6554C24.952 29.6826 25.0014 29.697 25.0517 29.697C25.102 29.697 25.1514 29.6826 25.1947 29.6554L25.9118 29.202ZM19.0833 21.2956C19.04 21.322 19.0041 21.3602 18.9791 21.4063C18.9541 21.4524 18.9409 21.5048 18.9409 21.5581C18.9409 21.6114 18.9541 21.6638 18.9791 21.7099C19.0041 21.7559 19.04 21.7941 19.0833 21.8206L23.6567 24.6483C23.6999 24.6747 23.7358 24.7129 23.7608 24.759C23.7858 24.8051 23.799 24.8574 23.799 24.9107C23.799 24.964 23.7858 25.0164 23.7608 25.0625C23.7358 25.1086 23.6999 25.1468 23.6567 25.1732L22.6981 25.7698C22.6548 25.7971 22.6054 25.8114 22.5551 25.8114C22.5048 25.8114 22.4554 25.7971 22.4121 25.7698L17.274 22.5881C17.2306 22.5609 17.1812 22.5465 17.1309 22.5465C17.0806 22.5465 17.0313 22.5609 16.9879 22.5881L16.2709 23.0336C16.2356 23.0555 16.1964 23.069 16.1559 23.0732C16.1153 23.0774 16.0744 23.0721 16.0359 23.0577C15.9974 23.0434 15.9623 23.0203 15.933 22.99C15.9036 22.9598 15.8808 22.9231 15.8659 22.8824L15.4127 21.6893L15.0151 20.6354C14.9997 20.587 14.996 20.5352 15.0044 20.4849C15.0127 20.4345 15.0329 20.3873 15.0629 20.3476C15.093 20.3078 15.132 20.2769 15.1763 20.2577C15.2205 20.2385 15.2686 20.2316 15.3161 20.2377L17.3185 20.5241L18.9755 20.7587C19.0282 20.7713 19.0764 20.7998 19.1144 20.8408C19.1525 20.8819 19.1787 20.9337 19.19 20.9902C19.2014 21.0467 19.1973 21.1055 19.1784 21.1596C19.1595 21.2138 19.1265 21.261 19.0833 21.2956ZM25.8969 17.0561C25.8537 17.0825 25.8177 17.1207 25.7927 17.1668C25.7677 17.2129 25.7546 17.2653 25.7546 17.3186C25.7546 17.3719 25.7677 17.4242 25.7927 17.4703C25.8177 17.5164 25.8537 17.5546 25.8969 17.581L30.4703 20.4087C30.5135 20.4352 30.5495 20.4734 30.5745 20.5195C30.5995 20.5656 30.6127 20.6179 30.6127 20.6712C30.6127 20.7245 30.5995 20.7769 30.5745 20.823C30.5495 20.8691 30.5135 20.9073 30.4703 20.9337L29.5118 21.5303C29.4684 21.5575 29.419 21.5719 29.3688 21.5719C29.3185 21.5719 29.2691 21.5575 29.2257 21.5303L24.0876 18.3486C24.0443 18.3213 23.9949 18.307 23.9446 18.307C23.8943 18.307 23.8449 18.3213 23.8015 18.3486L23.0882 18.798C23.053 18.82 23.0138 18.8335 22.9732 18.8376C22.9327 18.8418 22.8917 18.8365 22.8533 18.8222C22.8148 18.8078 22.7797 18.7847 22.7503 18.7545C22.721 18.7242 22.6981 18.6875 22.6833 18.6469L22.23 17.4538L21.8325 16.3999C21.8171 16.3515 21.8134 16.2997 21.8217 16.2493C21.8301 16.199 21.8502 16.1517 21.8803 16.112C21.9104 16.0723 21.9494 16.0414 21.9936 16.0221C22.0379 16.0029 22.086 15.9961 22.1334 16.0022L24.1359 16.2885L25.7929 16.5232C25.8444 16.5369 25.8913 16.5659 25.9282 16.6068C25.965 16.6478 25.9903 16.699 26.0012 16.7547C26.012 16.8103 26.008 16.8681 25.9896 16.9214C25.9711 16.9748 25.939 17.0214 25.8969 17.0561Z" fill="white"/>
<path id="Vector_2" d="M43.7313 15.5123C45.3013 16.4123 45.3013 17.8823 43.7313 18.7923L26.8313 28.6223C25.9557 29.066 24.9879 29.2972 24.0063 29.2972C23.0247 29.2972 22.0569 29.066 21.1813 28.6223L4.18125 18.7923C2.61125 17.8823 2.60125 16.4123 4.18125 15.5123L21.0413 5.68232C21.9172 5.23387 22.8872 5 23.8713 5C24.8553 5 25.8253 5.23387 26.7013 5.68232L43.7313 15.5123Z" fill="#5DCCB3"/>
<g id="Union">
<path d="M3 30C3.03261 30.3564 3.16023 30.6975 3.36954 30.9875C3.57671 31.2749 3.85642 31.502 4.17999 31.6455V31.6602L21.25 41.4773L21.25 41.4902C21.4318 41.5994 21.6225 41.6931 21.82 41.7703V41.7302L22.31 41.8901V41.9001L22.72 42.0002V41.9902L23.1 42.0569V42.1001H23.51V42.1702H23.9V42.123C23.9566 42.1245 24.0133 42.1252 24.07 42.1252C24.1468 42.1252 24.2234 42.1238 24.3 42.1211V42.1401H24.75V42.0884C24.9211 42.0698 25.0913 42.0439 25.26 42.0115V42.0203C25.5179 41.9768 25.772 41.9133 26.02 41.8301C26.314 41.7354 26.5986 41.6125 26.8701 41.4653L26.87 41.4902L43.5002 31.8228L43.5 31.8301L43.87 31.6199V31.6299C43.9766 31.5652 44.0793 31.4949 44.1781 31.4189C44.2268 31.3831 44.2739 31.3447 44.3191 31.3044L44.37 31.26V31.27C44.4121 31.2322 44.4526 31.1924 44.4913 31.1511C44.5366 31.1028 44.5796 31.0525 44.62 31V30.9683C44.66 30.9121 44.697 30.8538 44.7307 30.7939C44.748 30.7664 44.7644 30.7385 44.78 30.71C44.8197 30.6458 44.8531 30.5779 44.88 30.5073V30.52C44.9078 30.4482 44.9312 30.3748 44.95 30.3V30.2036C44.9557 30.1755 44.9607 30.1472 44.9651 30.1187C44.9713 30.0793 44.9762 30.0398 44.98 30V17.28C44.9904 17.2036 44.9904 17.1262 44.98 17.05V17C44.9534 17.2803 44.8679 17.551 44.73 17.7949C44.6964 17.8486 44.6596 17.9004 44.62 17.95V17.9683L44.6185 17.9705C44.5472 18.0706 44.4676 18.1653 44.38 18.25L44.37 18.21V18.2576C44.2199 18.4009 44.048 18.5203 43.86 18.6111V18.5901H43.81L43.8092 18.6265L26.9995 28.3982L27 28.3301L26.8984 28.3887L26.8467 28.4187C26.6808 28.5154 26.492 28.625 26.3111 28.7119C25.9699 28.843 25.6181 28.9436 25.26 29.0132V29.0103C25.0917 29.0447 24.9213 29.0681 24.75 29.0801V29.0906C24.604 29.1064 24.4572 29.1174 24.31 29.123V29.1201H23.9V29.1255C23.36 29.1108 22.8257 29.0261 22.31 28.8748V28.8501C22.1432 28.8042 21.9795 28.7473 21.82 28.6802V28.7085C21.6263 28.6338 21.4361 28.5493 21.25 28.4553V28.4502L4.22 18.6655V18.6201L4.191 18.6489L4.19 18.6499L4.17999 18.6455C3.85642 18.502 3.57671 18.2749 3.36954 17.9875C3.16023 17.6975 3.03261 17.3564 3 17V30Z" fill="url(#paint0_linear_209_5627)"/>
<path d="M44.98 30.05C44.9844 30.1267 44.9844 30.2034 44.98 30.28V30.05Z" fill="url(#paint1_linear_209_5627)"/>
</g>
<path id="Vector 2 (Stroke)" fill-rule="evenodd" clip-rule="evenodd" d="M25.9873 35.6524C25.4574 35.9027 24.9945 36.0978 24.6698 36.179C23.9233 36.3656 23.1242 36.2519 22.5188 36.1007C21.9016 35.9466 21.3947 35.7299 21.1869 35.626L21.1641 35.6146L3 24.5V23L21.8337 34.3839C21.9794 34.4542 22.3747 34.6217 22.858 34.7424C23.3783 34.8723 23.9125 34.9253 24.3302 34.8208C24.5055 34.777 24.8551 34.6389 25.3896 34.3865C25.9075 34.1419 26.5548 33.8118 27.3041 33.4132C28.8018 32.6164 30.6847 31.5584 32.7139 30.3929C36.7755 28.0601 40.9851 25.8677 45 23.5V25C41.7534 26.9147 37.4782 29.271 33.4111 31.6069C31.3778 32.7748 29.4794 33.8417 27.9616 34.6492C27.203 35.0527 26.5339 35.3944 25.9873 35.6524Z" fill="#46C1A5"/>
<g id="Group 355">
<path id="Vector_3" d="M22.4992 10.2564L22.4992 12.7342L19.7193 12.7342C19.2997 12.7342 19.088 13.0119 19.386 13.1721L23.8911 15.6137C24.0754 15.7141 24.3694 15.7141 24.5537 15.6137L29.0628 13.1721C29.3607 13.0098 29.149 12.7342 28.7295 12.7342L25.9496 12.7342L25.9496 10.2564C25.9496 10.1154 25.7378 10.0001 25.4791 10.0001L22.9697 10.0001C22.7109 10.0001 22.4992 10.1154 22.4992 10.2564Z" fill="white"/>
<path id="Vector_4" d="M22.4992 23.2578L22.4992 20.7799L19.7193 20.7799C19.2997 20.7799 19.088 20.5022 19.386 20.342L23.8911 17.9005C24.0754 17.8001 24.3694 17.8001 24.5537 17.9005L29.0628 20.342C29.3607 20.5044 29.149 20.7799 28.7295 20.7799L25.9496 20.7799L25.9496 23.2578C25.9496 23.3987 25.7378 23.5141 25.4791 23.5141L22.9697 23.5141C22.7109 23.5141 22.4992 23.3987 22.4992 23.2578Z" fill="white"/>
<path id="Vector_5" d="M37.2663 16.097L32.93 16.097L32.93 14.5085C32.93 14.2687 32.4441 14.1477 32.1637 14.318L27.891 16.8924C27.7154 16.9977 27.7154 17.1657 27.891 17.271L32.1637 19.8476C32.4478 20.0179 32.93 19.8969 32.93 19.6572L32.93 18.0686L37.2663 18.0686C37.513 18.0686 37.7148 17.9476 37.7148 17.7998L37.7148 16.3658C37.7148 16.218 37.513 16.097 37.2663 16.097Z" fill="white"/>
<path id="Vector_6" d="M10.4486 16.097L14.7848 16.097L14.7848 14.5085C14.7848 14.2687 15.2708 14.1477 15.5511 14.318L19.8238 16.8924C19.9995 16.9977 19.9995 17.1657 19.8238 17.271L15.5511 19.8476C15.267 20.0179 14.7848 19.8969 14.7848 19.6572L14.7848 18.0686L10.4486 18.0686C10.2019 18.0686 10 17.9476 10 17.7998L10 16.3658C10 16.218 10.2019 16.097 10.4486 16.097Z" fill="white"/>
</g>
<path id="&#229;&#133;&#182;&#228;&#187;&#150;" d="M7.10492 32.728L4.99145 31.5078L5.21629 26.9753L7.24097 28.1442L7.21513 28.665L5.69789 27.7891L5.62589 29.2404L7.03149 30.0519L7.0058 30.5698L5.6002 29.7583L5.52457 31.2828L7.13061 32.2101L7.10492 32.728ZM7.70433 30.7986C7.74062 30.0671 7.94119 29.5839 8.30604 29.3491C8.67089 29.1142 9.14678 29.1663 9.73372 29.5051C10.2801 29.8206 10.7093 30.2861 11.0216 30.9018C11.3338 31.5175 11.473 32.1648 11.4394 32.8436C11.4029 33.5791 11.2031 34.0637 10.8401 34.2975C10.477 34.5314 10.0096 34.4833 9.43789 34.1532C8.87971 33.8309 8.44282 33.361 8.12722 32.7433C7.81162 32.1257 7.67066 31.4774 7.70433 30.7986ZM8.23947 31.0594C8.21227 31.6075 8.31139 32.1172 8.53682 32.5885C8.76403 33.0588 9.073 33.4068 9.46373 33.6323C9.88321 33.8745 10.22 33.9065 10.4742 33.7281C10.7302 33.5488 10.8723 33.1744 10.9005 32.6048C10.9296 32.0196 10.8344 31.5001 10.6151 31.0464C10.3974 30.5936 10.0848 30.2496 9.67714 30.0143C9.27627 29.7828 8.94319 29.7631 8.6779 29.955C8.41261 30.147 8.26647 30.5151 8.23947 31.0594ZM14.955 37.2602L14.3562 36.9145L13.7666 35.2798C13.6488 34.953 13.538 34.7134 13.4342 34.5612C13.3305 34.407 13.2034 34.2865 13.0528 34.1996L12.6875 33.9886L12.5928 35.8964L12.0854 35.6035L12.3103 31.071L13.5078 31.7624C13.8901 31.9831 14.1842 32.2622 14.3902 32.5999C14.5961 32.9375 14.6896 33.2975 14.6706 33.6798C14.6395 34.308 14.3283 34.5477 13.7372 34.399L13.7364 34.4136C13.8421 34.5288 13.9314 34.6576 14.0044 34.8001C14.079 34.9435 14.1731 35.1694 14.2865 35.4777L14.955 37.2602ZM12.7923 31.876L12.7129 33.4766L13.3117 33.8223C13.5434 33.9561 13.735 33.9864 13.8865 33.9134C14.0397 33.8413 14.1226 33.6785 14.1352 33.4249C14.1469 33.1888 14.0901 32.9664 13.9648 32.7576C13.8394 32.5488 13.6507 32.3716 13.3987 32.2261L12.7923 31.876Z" fill="white"/>
</g>
</g>
<defs>
<linearGradient id="paint0_linear_209_5627" x1="4.9693" y1="29.3578" x2="45.34" y2="29.3578" gradientUnits="userSpaceOnUse">
<stop stop-color="#2DA388"/>
<stop offset="0.505208" stop-color="#115B57"/>
<stop offset="1" stop-color="#0B3C43"/>
</linearGradient>
<linearGradient id="paint1_linear_209_5627" x1="4.9693" y1="29.3578" x2="45.34" y2="29.3578" gradientUnits="userSpaceOnUse">
<stop stop-color="#2DA388"/>
<stop offset="0.505208" stop-color="#115B57"/>
<stop offset="1" stop-color="#0B3C43"/>
</linearGradient>
</defs>
</svg>
