<svg width="48" height="48" viewBox="0 0 48 48" fill="none" xmlns="http://www.w3.org/2000/svg">
<g id="Group 429">
<g id="Group 392">
<g id="Group 391">
<g id="Group 390">
<g id="Group 385">
<path id="Vector" d="M25.3531 36.3388V36.0688L36.2431 34.5388V34.7988C36.268 35.0002 36.2174 35.2037 36.1011 35.3699C35.9847 35.5362 35.8108 35.6533 35.6131 35.6988L31.0131 36.3388V37.4188L33.4731 37.0688C33.5055 37.0623 33.5391 37.0635 33.571 37.0725C33.6029 37.0814 33.6323 37.0977 33.6566 37.1202C33.681 37.1426 33.6997 37.1705 33.7113 37.2015C33.7228 37.2326 33.7269 37.2659 33.7231 37.2988C33.7244 37.3716 33.7001 37.4426 33.6544 37.4993C33.6087 37.556 33.5445 37.5947 33.4731 37.6088L28.2631 38.3388C28.1231 38.3388 28.0231 38.2588 28.0331 38.0988C28.0273 38.0276 28.0489 37.9569 28.0935 37.9012C28.1381 37.8454 28.2023 37.8088 28.2731 37.7988L30.5431 37.4788V36.4088L26.1431 37.0288C26.0444 37.0433 25.9438 37.0362 25.8482 37.008C25.7526 36.9799 25.6642 36.9314 25.5891 36.8658C25.514 36.8002 25.4541 36.7192 25.4133 36.6282C25.3726 36.5372 25.352 36.4385 25.3531 36.3388Z" fill="white"/>
<path id="Vector_2" d="M35.753 26.5988C36.133 26.5488 36.363 26.8588 36.363 27.3188L36.283 34.0188L25.353 35.5288L25.433 28.8288C25.4468 28.6073 25.5339 28.3967 25.6805 28.2301C25.8272 28.0636 26.0251 27.9505 26.243 27.9088L35.753 26.5988Z" fill="white"/>
<path id="Vector_3" d="M22.5732 28.429H23.7332V30.639L22.9732 30.959C22.788 31.0507 22.633 31.1938 22.5266 31.371C22.4203 31.5483 22.367 31.7523 22.3732 31.959V35.689C22.3701 35.8685 22.4307 36.0432 22.5442 36.1824C22.6577 36.3215 22.8167 36.4159 22.9932 36.449L23.7332 36.559V38.749L22.5732 39.139C22.4092 39.1794 22.2381 39.1811 22.0734 39.1441C21.9087 39.1071 21.7548 39.0323 21.6239 38.9256C21.493 38.819 21.3886 38.6833 21.3191 38.5295C21.2496 38.3756 21.2167 38.2077 21.2232 38.039V29.949C21.2091 29.5705 21.3416 29.2011 21.5931 28.918C21.8446 28.6348 22.1957 28.4596 22.5732 28.429Z" fill="white"/>
</g>
<path id="Vector_4" d="M39.823 7.89895C40.0544 7.87061 40.2892 7.89482 40.5099 7.96978C40.7306 8.04474 40.9316 8.16851 41.0979 8.33189C41.2641 8.49527 41.3914 8.69405 41.4702 8.91342C41.549 9.13279 41.5773 9.36712 41.553 9.59895L41.193 40.3789C41.1921 40.8889 41.0157 41.383 40.6933 41.7782C40.371 42.1734 39.9224 42.4456 39.423 42.549L18.423 45.549C18.1935 45.579 17.9602 45.5566 17.7406 45.4834C17.521 45.4102 17.3209 45.2882 17.1553 45.1264C16.9897 44.9647 16.8629 44.7675 16.7846 44.5497C16.7063 44.3319 16.6784 44.0991 16.703 43.8689L17.063 13.0889C17.0621 12.5785 17.2378 12.0834 17.5605 11.6878C17.8831 11.2923 18.3328 11.0206 18.833 10.9189L39.823 7.89895ZM31.403 19.7589L35.503 19.1789V20.6389L38.653 18.1589L35.533 16.5989V18.0489L31.303 18.6489L35.493 15.3489L36.123 16.5189L37.973 12.7289L34.353 13.1989L34.973 14.3589L30.503 17.8889C30.2927 17.7845 30.0546 17.7495 29.823 17.7889C29.4067 17.8744 29.0327 18.1014 28.7647 18.4314C28.4968 18.7613 28.3513 19.1739 28.353 19.5989C28.3325 19.7891 28.3549 19.9815 28.4185 20.1619C28.4821 20.3423 28.5853 20.5062 28.7205 20.6414C28.8558 20.7767 29.0197 20.8799 29.2001 20.9435C29.3805 21.0071 29.5729 21.0295 29.763 21.0089C30.0398 20.9615 30.2988 20.8406 30.513 20.6589L34.853 22.8989L34.203 24.2489L37.813 23.7489L36.053 20.4689L35.353 21.8189L31.353 19.7589M36.283 33.9989L36.353 27.2989C36.353 26.8389 36.123 26.5289 35.743 26.5789L26.263 27.9089C26.0451 27.9507 25.8472 28.0637 25.7006 28.2303C25.5539 28.3969 25.4668 28.6075 25.453 28.8289L25.353 35.5289L36.253 33.9989M19.793 21.3889L25.033 20.6489V22.1089L28.163 19.5989L25.063 17.9989V19.4489L19.823 20.1889V21.3589M36.273 34.7989V34.5389L25.353 36.0689V36.3389C25.3518 36.4396 25.3725 36.5393 25.4138 36.6311C25.4552 36.7229 25.5161 36.8045 25.5923 36.8703C25.6686 36.936 25.7582 36.9843 25.8551 37.0117C25.952 37.0391 26.0537 37.045 26.153 37.0289L30.553 36.4089V37.4789L28.283 37.7989C28.2123 37.8089 28.1481 37.8455 28.1035 37.9013C28.0589 37.9571 28.0372 38.0278 28.043 38.0989C28.043 38.2589 28.133 38.3589 28.273 38.3389L33.493 37.5989C33.5645 37.5849 33.6287 37.5461 33.6744 37.4894C33.7201 37.4327 33.7444 37.3618 33.743 37.2889C33.7468 37.256 33.7428 37.2227 33.7313 37.1916C33.7197 37.1606 33.701 37.1327 33.6766 37.1103C33.6522 37.0879 33.6229 37.0715 33.591 37.0626C33.5591 37.0537 33.5255 37.0524 33.493 37.0589L31.033 37.4089V36.3389L35.633 35.6989C35.8308 35.6535 36.0047 35.5363 36.121 35.37C36.2374 35.2038 36.288 35.0003 36.263 34.7989M22.553 39.1389L23.713 38.7489V36.5989L22.973 36.4889C22.7966 36.4559 22.6375 36.3615 22.524 36.2223C22.4105 36.0832 22.35 35.9084 22.353 35.7289V31.9989C22.3469 31.7923 22.4001 31.5883 22.5065 31.411C22.6128 31.2337 22.7678 31.0907 22.953 30.9989L23.713 30.6789V28.4589H22.553C22.1755 28.4896 21.8244 28.6648 21.5729 28.948C21.3214 29.2311 21.1889 29.6005 21.203 29.9789V38.0689C21.1966 38.2377 21.2294 38.4056 21.299 38.5595C21.3685 38.7133 21.4728 38.849 21.6037 38.9556C21.7346 39.0623 21.8885 39.1371 22.0533 39.1741C22.218 39.2111 22.3891 39.2093 22.553 39.1689" fill="#5DCCB3"/>
<g id="Group 389">
<path id="Vector_5" d="M31.1532 18.709C31.1989 18.8681 31.2192 19.0335 31.2132 19.199C31.2122 19.3437 31.1954 19.4879 31.1632 19.629C31.0596 20.021 30.8358 20.3707 30.5232 20.629C30.309 20.8106 30.05 20.9315 29.7732 20.979C29.585 21.0003 29.3944 20.9797 29.2151 20.9185C29.0359 20.8573 28.8724 20.7571 28.7366 20.6251C28.6007 20.4931 28.4959 20.3325 28.4296 20.1551C28.3633 19.9776 28.3372 19.7877 28.3532 19.599C28.3482 19.175 28.4898 18.7623 28.754 18.4306C29.0182 18.099 29.3888 17.8688 29.8032 17.779C30.0348 17.7395 30.2728 17.7745 30.4832 17.879C30.6469 17.9626 30.7911 18.0797 30.9065 18.2227C31.0219 18.3657 31.106 18.5314 31.1532 18.709ZM29.7732 20.819C30.1365 20.7424 30.4619 20.5419 30.6936 20.2519C30.9253 19.9618 31.0489 19.6002 31.0432 19.229C31.064 19.062 31.0467 18.8925 30.9924 18.7333C30.9381 18.574 30.8483 18.4292 30.7298 18.3098C30.6113 18.1903 30.4673 18.0994 30.3085 18.0438C30.1497 17.9882 29.9803 17.9695 29.8132 17.989C29.4465 18.0661 29.1185 18.2695 28.8864 18.5638C28.6543 18.858 28.5328 19.2243 28.5432 19.599C28.5243 19.7655 28.5431 19.9342 28.5981 20.0925C28.6531 20.2509 28.7429 20.3948 28.8609 20.5138C28.979 20.6328 29.1222 20.7238 29.2801 20.7801C29.438 20.8364 29.6065 20.8565 29.7732 20.839" fill="#5DCCB3"/>
<g id="Group 386">
<path id="Vector_6" d="M31.1632 19.5989L31.4032 19.7289L35.4032 21.7889L36.0632 20.4389L37.8332 23.7289L34.2232 24.2289L34.8732 22.8789L30.5332 20.6389C30.8492 20.3687 31.0701 20.0041 31.1632 19.5989Z" fill="white"/>
<path id="Vector_7" d="M35.5328 16.5989L38.6328 18.1989L35.4828 20.5989V19.1389L31.3828 19.7189L31.1628 19.5989C31.195 19.4578 31.2118 19.3136 31.2128 19.1689C31.2188 19.0034 31.1985 18.838 31.1528 18.6789L31.2828 18.5789L35.5128 17.9789L35.5328 16.5989Z" fill="white"/>
<path id="Vector_8" d="M30.9091 19.8702C31.2221 19.1212 30.976 18.305 30.3594 18.0474C29.7428 17.7897 28.9892 18.188 28.6762 18.9371C28.3631 19.6862 28.6092 20.5023 29.2258 20.76C29.8424 21.0177 30.596 20.6193 30.9091 19.8702Z" fill="white"/>
<path id="Vector_9" d="M25.063 18.0288L28.163 19.6388L25.013 22.1088L25.033 20.6588L19.793 21.3888L19.803 20.2188L25.043 19.4888L25.063 18.0288Z" fill="white"/>
<path id="Vector_10" d="M37.9532 12.689L36.1032 16.479L35.4732 15.309L31.2832 18.599L31.1532 18.699C31.1058 18.5241 31.0227 18.3609 30.9091 18.2198C30.7955 18.0786 30.6539 17.9626 30.4932 17.879L34.9632 14.349L34.3532 13.199L37.9532 12.689Z" fill="white"/>
</g>
</g>
</g>
<path id="Union" fill-rule="evenodd" clip-rule="evenodd" d="M39.7667 7.87042L30.1231 3.01882C30.2888 2.99373 30.4574 2.99373 30.6231 3.01882L30.6721 3.04345L30.6915 3.04813L30.6531 3.02882C30.7495 3.04821 30.8434 3.0784 30.9331 3.11882H30.9931L40.6931 7.98882L40.6331 7.98882L40.6134 7.98882L40.6931 8.02882C40.5397 7.95471 40.3756 7.90807 40.2081 7.88999C40.0897 7.88095 39.9703 7.88722 39.8531 7.90882L39.8231 7.89882L18.841 10.8477L18.8431 10.8487C18.3429 10.9503 17.8932 11.222 17.5706 11.6176C17.5174 11.6828 17.4682 11.7507 17.4231 11.821C17.4221 11.8692 17.3888 11.9175 17.354 11.9681L17.354 11.9681C17.3316 12.0005 17.3086 12.0339 17.2931 12.0687C17.2429 12.1678 17.2027 12.2716 17.1731 12.3787L17.1674 12.3758C17.1049 12.5828 17.0727 12.7993 17.0731 13.0187L17.0631 13.0187L17.0632 13.0137L17.0617 13.0129L16.7103 43.0564C16.7192 43.5527 16.7866 44.4685 16.9083 44.6915C17.0571 44.9644 17.2809 45.189 17.5531 45.3389L7.85312 40.4689C7.57981 40.3194 7.35472 40.0952 7.20419 39.8225C7.05366 39.5498 6.98392 39.2398 7.00312 38.9289L7.04524 38.95C7.04086 38.9014 7.03679 38.8525 7.03304 38.8038L7.00311 38.7887L7.00785 38.3833C6.99936 38.183 6.99772 38.0164 7.00312 37.9289L7.01311 37.9339L7.36143 8.15285L7.35315 8.14871C7.35595 7.63661 7.53414 7.14093 7.85803 6.74425C7.89261 6.70191 7.92862 6.66096 7.96598 6.62147C7.99073 6.59301 8.01647 6.5654 8.04315 6.53871L8.25315 6.35871L8.52315 6.17871C8.71122 6.07041 8.91828 5.99913 9.13315 5.96871L9.13323 5.96875L30.1231 3.02876L39.7667 7.87042Z" fill="url(#paint0_linear_248_3325)"/>
</g>
</g>
</g>
<defs>
<linearGradient id="paint0_linear_248_3325" x1="9.49999" y1="-2.5" x2="54" y2="45" gradientUnits="userSpaceOnUse">
<stop stop-color="#2DA388"/>
<stop offset="0.505208" stop-color="#115B57"/>
<stop offset="1" stop-color="#0B3C43"/>
</linearGradient>
</defs>
</svg>
