<svg width="48" height="48" viewBox="0 0 48 48" fill="none" xmlns="http://www.w3.org/2000/svg">
<g id="&#231;&#137;&#135;&#229;&#140;&#186;">
<g id="Group 327">
<path id="Rectangle 232" d="M0.721484 28.3998V27.1728L23.8715 40.5201V41.8516L0.721484 28.3998Z" fill="url(#paint0_linear_209_4588)" stroke="url(#paint1_linear_209_4588)" stroke-width="0.4"/>
<path id="Rectangle 233" d="M47.2546 28.0708L47.2546 26.8471L24.188 40.5187L24.1881 41.847L47.2546 28.0708Z" fill="url(#paint2_linear_209_4588)" stroke="url(#paint3_linear_209_4588)" stroke-width="0.4"/>
<path id="Rectangle 234" d="M0.910901 26.8676L23.5401 12.8207L47.0595 26.4977L23.9866 40.173L0.910901 26.8676Z" fill="url(#paint4_linear_209_4588)" stroke="url(#paint5_linear_209_4588)" stroke-width="0.4"/>
</g>
<g id="&#229;&#155;&#173;&#229;&#140;&#186;">
<g id="&#229;&#155;&#173;&#229;&#140;&#186;&#230;&#165;&#188;1">
<path id="Vector 10" d="M25.4699 10.5673L21.0288 8.04417L25.306 5.52422L29.7471 8.04732L25.4699 10.5673Z" fill="url(#paint6_linear_209_4588)" stroke="url(#paint7_linear_209_4588)" stroke-width="0.2"/>
<path id="Vector 11" d="M25.305 9.41275L23.0136 8.04584L25.305 6.67894L27.5964 8.04584L25.305 9.41275Z" fill="url(#paint8_linear_209_4588)" stroke="url(#paint9_linear_209_4588)" stroke-width="0.2"/>
<path id="Vector 12" d="M25.3708 23.5369L20.9291 21.1711V8.21772L25.3708 10.7412V23.5369Z" fill="url(#paint10_linear_209_4588)" stroke="url(#paint11_linear_209_4588)" stroke-width="0.2"/>
<path id="Vector 13" d="M29.8467 8.22081L25.5707 10.74V23.6876L29.8467 21.0109V8.22081Z" fill="url(#paint12_linear_209_4588)" stroke="url(#paint13_linear_209_4588)" stroke-width="0.2"/>
</g>
<g id="&#229;&#155;&#173;&#229;&#140;&#186;&#230;&#165;&#188;1_2">
<path id="Vector 10_2" d="M32.5174 21.7249L28.3257 20.1244L32.3591 18.5272L36.5509 20.1278L32.5174 21.7249Z" fill="url(#paint14_linear_209_4588)" stroke="url(#paint15_linear_209_4588)" stroke-width="0.2"/>
<path id="Vector 11_2" d="M32.3586 20.9777L30.2336 20.1257L32.3586 19.2738L34.4836 20.1257L32.3586 20.9777Z" fill="url(#paint16_linear_209_4588)" stroke="url(#paint17_linear_209_4588)" stroke-width="0.2"/>
<path id="Vector 12_2" d="M32.4181 30.1142L28.1498 28.5863V20.2712L32.4181 21.901V30.1142Z" fill="url(#paint18_linear_209_4588)" stroke="url(#paint19_linear_209_4588)" stroke-width="0.2"/>
<path id="Vector 13_2" d="M36.7268 20.2731L32.6181 21.9V30.2122L36.7268 28.4836V20.2731Z" fill="url(#paint20_linear_209_4588)" stroke="url(#paint21_linear_209_4588)" stroke-width="0.2"/>
</g>
<g id="&#229;&#155;&#173;&#229;&#140;&#186;&#230;&#165;&#188;1_3">
<path id="Vector 10_3" d="M20.2263 19.287L15.6132 16.6663L20.0562 14.0486L24.6693 16.6694L20.2263 19.287Z" fill="url(#paint22_linear_209_4588)" stroke="url(#paint23_linear_209_4588)" stroke-width="0.2"/>
<path id="Vector 11_3" d="M20.0553 18.206L17.4766 16.6677L20.0553 15.1294L22.634 16.6677L20.0553 18.206Z" fill="url(#paint24_linear_209_4588)"/>
<path id="Vector 14" d="M20.0553 17.7477L17.6718 16.3259L20.0553 14.904L22.4388 16.3259L20.0553 17.7477Z" fill="url(#paint25_linear_209_4588)" stroke="url(#paint26_linear_209_4588)" stroke-width="0.2"/>
<path id="Vector 12_3" d="M20.1272 30.3673L15.5136 27.91V16.8398L20.1272 19.4609V30.3673Z" fill="url(#paint27_linear_209_4588)" stroke="url(#paint28_linear_209_4588)" stroke-width="0.2"/>
<path id="Vector 13_3" d="M24.7688 16.8428L20.3271 19.4597V30.3531L24.7688 27.5727V16.8428Z" fill="url(#paint29_linear_209_4588)" stroke="url(#paint30_linear_209_4588)" stroke-width="0.2"/>
<g id="Rectangle 346">
<path d="M15.9292 19.6162L16.6169 19.9581V21.3254L15.9292 20.9836V19.6162Z" fill="#94C8DD"/>
<path d="M17.3045 20.2999L17.9922 20.6417V22.0091L17.3045 21.6673V20.2999Z" fill="#94C8DD"/>
<path d="M18.6799 20.9836L19.3675 21.3254V22.6928L18.6799 22.3509V20.9836Z" fill="#94C8DD"/>
<path d="M15.9292 21.6673L16.6169 22.0091V23.3765L15.9292 23.0346V21.6673Z" fill="#94C8DD"/>
<path d="M17.3045 22.3509L17.9922 22.6928V24.0601L17.3045 23.7183V22.3509Z" fill="#94C8DD"/>
<path d="M18.6799 23.0346L19.3675 23.3765V24.7438L18.6799 24.402V23.0346Z" fill="#94C8DD"/>
<path d="M15.9292 23.7183L16.6169 24.0601V25.4275L15.9292 25.0857V23.7183Z" fill="#94C8DD"/>
<path d="M17.3045 24.402L17.9922 24.7438V26.1112L17.3045 25.7693V24.402Z" fill="#94C8DD"/>
<path d="M18.6799 25.0857L19.3675 25.4275V26.7949L18.6799 26.453V25.0857Z" fill="#94C8DD"/>
</g>
<g id="Rectangle 347">
<path d="M20.915 26.5168L21.6027 26.175V24.8076L20.915 25.1495V26.5168Z" fill="#94C8DD"/>
<path d="M22.2904 25.8331L22.978 25.4913V24.1239L22.2904 24.4658V25.8331Z" fill="#94C8DD"/>
<path d="M23.6657 25.1495L24.3534 24.8076V23.4403L23.6657 23.7821V25.1495Z" fill="#94C8DD"/>
<path d="M20.915 24.4658L21.6027 24.1239V22.7566L20.915 23.0984V24.4658Z" fill="#94C8DD"/>
<path d="M22.2904 23.7821L22.978 23.4403V22.0729L22.2904 22.4147V23.7821Z" fill="#94C8DD"/>
<path d="M23.6657 23.0984L24.3534 22.7566V21.3892L23.6657 21.7311V23.0984Z" fill="#94C8DD"/>
<path d="M20.915 22.4147L21.6027 22.0729V20.7055L20.915 21.0474V22.4147Z" fill="#94C8DD"/>
<path d="M22.2904 21.7311L22.978 21.3892V20.0219L22.2904 20.3637V21.7311Z" fill="#94C8DD"/>
<path d="M23.6657 21.0474L24.3534 20.7055V19.3382L23.6657 19.68V21.0474Z" fill="#94C8DD"/>
</g>
<g id="Group 292">
<path id="Vector 15" d="M17.4766 16.6675V16.3257L20.0553 17.864V18.2058L17.4766 16.6675Z" fill="#A8E0EF"/>
<path id="Vector 16" d="M20.0552 17.864V18.2058L22.6339 16.6675V16.3257L20.0552 17.864Z" fill="#A8E0EF"/>
</g>
</g>
<g id="Group 291">
<path id="Vector 17" d="M9.91252 26.4961L8.19336 27.5216L15.7577 31.7946L17.4768 30.7691L9.91252 26.4961Z" fill="url(#paint31_linear_209_4588)"/>
<path id="Vector 18" d="M8.19336 29.0598V27.5215L15.7577 31.7945V33.3328L8.19336 29.0598Z" fill="url(#paint32_linear_209_4588)"/>
<path id="Vector 19" d="M15.7578 31.7947V33.333L17.477 32.3075V30.7692L15.7578 31.7947Z" fill="url(#paint33_linear_209_4588)"/>
</g>
<g id="Group 292_2">
<path id="Vector 17_2" d="M30.65 30.5342L32.3691 31.5597L24.8048 35.8327L23.0857 34.8072L30.65 30.5342Z" fill="url(#paint34_linear_209_4588)"/>
<path id="Vector 18_2" d="M32.3691 33.0979V31.5596L24.8048 35.8326V37.3709L32.3691 33.0979Z" fill="url(#paint35_linear_209_4588)"/>
<path id="Vector 19_2" d="M24.8047 35.8328V37.3711L23.0855 36.3456V34.8073L24.8047 35.8328Z" fill="url(#paint36_linear_209_4588)"/>
</g>
</g>
</g>
<defs>
<linearGradient id="paint0_linear_209_4588" x1="1.56557" y1="35.1717" x2="23.2594" y2="35.1717" gradientUnits="userSpaceOnUse">
<stop stop-color="#34A0D7" stop-opacity="0.3"/>
<stop offset="1" stop-color="#339ED7"/>
</linearGradient>
<linearGradient id="paint1_linear_209_4588" x1="23.6186" y1="41.9796" x2="4.18365" y2="31.3364" gradientUnits="userSpaceOnUse">
<stop offset="0.255208" stop-color="#7DDAFF" stop-opacity="0"/>
<stop offset="0.970799" stop-color="#ABE0FF"/>
</linearGradient>
<linearGradient id="paint2_linear_209_4588" x1="46.4142" y1="35.0207" x2="24.7973" y2="35.0207" gradientUnits="userSpaceOnUse">
<stop stop-color="#34A0D7" stop-opacity="0.3"/>
<stop offset="1" stop-color="#339ED7"/>
</linearGradient>
<linearGradient id="paint3_linear_209_4588" x1="24.4393" y1="41.9751" x2="47.8461" y2="29.5244" gradientUnits="userSpaceOnUse">
<stop stop-color="#ABE0FF"/>
<stop offset="1" stop-color="#7DDAFF" stop-opacity="0"/>
</linearGradient>
<linearGradient id="paint4_linear_209_4588" x1="47.4546" y1="26.496" x2="8.59346" y2="22.848" gradientUnits="userSpaceOnUse">
<stop stop-color="#9DDBFA"/>
<stop offset="1" stop-color="#0D65BE"/>
</linearGradient>
<linearGradient id="paint5_linear_209_4588" x1="24.4393" y1="12.5874" x2="21.9863" y2="36.594" gradientUnits="userSpaceOnUse">
<stop offset="0.142852" stop-color="#60B9EC" stop-opacity="0.0784314"/>
<stop offset="1" stop-color="#7DDAFF"/>
</linearGradient>
<linearGradient id="paint6_linear_209_4588" x1="28.6443" y1="10.6273" x2="28.5902" y2="6.05456" gradientUnits="userSpaceOnUse">
<stop stop-color="#0BBDFB"/>
<stop offset="1" stop-color="#1562AA"/>
</linearGradient>
<linearGradient id="paint7_linear_209_4588" x1="29.6645" y1="8.04575" x2="20.959" y2="8.04601" gradientUnits="userSpaceOnUse">
<stop stop-color="#5BA5E9"/>
<stop offset="1" stop-color="#7DC8FF"/>
</linearGradient>
<linearGradient id="paint8_linear_209_4588" x1="27.0812" y1="9.49796" x2="27.0498" y2="6.92582" gradientUnits="userSpaceOnUse">
<stop stop-color="#0BBDFB"/>
<stop offset="1" stop-color="#1562AA"/>
</linearGradient>
<linearGradient id="paint9_linear_209_4588" x1="27.6376" y1="8.04584" x2="22.8892" y2="8.04598" gradientUnits="userSpaceOnUse">
<stop stop-color="#5BA5E9"/>
<stop offset="1" stop-color="#7DC8FF"/>
</linearGradient>
<linearGradient id="paint10_linear_209_4588" x1="24.8077" y1="23.5386" x2="23.8756" y2="10.0257" gradientUnits="userSpaceOnUse">
<stop stop-color="#0BBDFB"/>
<stop offset="1" stop-color="#1562AA"/>
</linearGradient>
<linearGradient id="paint11_linear_209_4588" x1="25.3271" y1="15.8747" x2="20.8952" y2="15.8747" gradientUnits="userSpaceOnUse">
<stop stop-color="#5BA5E9"/>
<stop offset="1" stop-color="#7DC8FF"/>
</linearGradient>
<linearGradient id="paint12_linear_209_4588" x1="29.3072" y1="8.21238" x2="28.3205" y2="21.8612" gradientUnits="userSpaceOnUse">
<stop stop-color="#0BBDFB"/>
<stop offset="1" stop-color="#1562AA"/>
</linearGradient>
<linearGradient id="paint13_linear_209_4588" x1="29.8081" y1="15.957" x2="25.5345" y2="15.957" gradientUnits="userSpaceOnUse">
<stop stop-color="#5BA5E9"/>
<stop offset="1" stop-color="#7DC8FF"/>
</linearGradient>
<linearGradient id="paint14_linear_209_4588" x1="35.5729" y1="21.7963" x2="35.5494" y2="18.8376" gradientUnits="userSpaceOnUse">
<stop stop-color="#0BBDFB"/>
<stop offset="1" stop-color="#1562AA"/>
</linearGradient>
<linearGradient id="paint15_linear_209_4588" x1="36.555" y1="20.1261" x2="28.1749" y2="20.1264" gradientUnits="userSpaceOnUse">
<stop stop-color="#5BA5E9"/>
<stop offset="1" stop-color="#7DC8FF"/>
</linearGradient>
<linearGradient id="paint16_linear_209_4588" x1="34.0684" y1="21.0652" x2="34.0547" y2="19.4009" gradientUnits="userSpaceOnUse">
<stop stop-color="#0BBDFB"/>
<stop offset="1" stop-color="#1562AA"/>
</linearGradient>
<linearGradient id="paint17_linear_209_4588" x1="34.604" y1="20.1257" x2="30.0331" y2="20.1259" gradientUnits="userSpaceOnUse">
<stop stop-color="#5BA5E9"/>
<stop offset="1" stop-color="#7DC8FF"/>
</linearGradient>
<linearGradient id="paint18_linear_209_4588" x1="31.8797" y1="30.1496" x2="31.4733" y2="21.3841" gradientUnits="userSpaceOnUse">
<stop stop-color="#0BBDFB"/>
<stop offset="1" stop-color="#1562AA"/>
</linearGradient>
<linearGradient id="paint19_linear_209_4588" x1="32.3797" y1="25.1911" x2="28.1135" y2="25.1911" gradientUnits="userSpaceOnUse">
<stop stop-color="#5BA5E9"/>
<stop offset="1" stop-color="#7DC8FF"/>
</linearGradient>
<linearGradient id="paint20_linear_209_4588" x1="36.2112" y1="20.2337" x2="35.7809" y2="29.0895" gradientUnits="userSpaceOnUse">
<stop stop-color="#0BBDFB"/>
<stop offset="1" stop-color="#1562AA"/>
</linearGradient>
<linearGradient id="paint21_linear_209_4588" x1="36.6933" y1="25.2443" x2="32.5795" y2="25.2443" gradientUnits="userSpaceOnUse">
<stop stop-color="#5BA5E9"/>
<stop offset="1" stop-color="#7DC8FF"/>
</linearGradient>
<linearGradient id="paint22_linear_209_4588" x1="23.5182" y1="19.345" x2="23.4621" y2="14.6029" gradientUnits="userSpaceOnUse">
<stop stop-color="#0BBDFB"/>
<stop offset="1" stop-color="#1562AA"/>
</linearGradient>
<linearGradient id="paint23_linear_209_4588" x1="24.5762" y1="16.6678" x2="15.5483" y2="16.6681" gradientUnits="userSpaceOnUse">
<stop stop-color="#5BA5E9"/>
<stop offset="1" stop-color="#7DC8FF"/>
</linearGradient>
<linearGradient id="paint24_linear_209_4588" x1="22.634" y1="16.6677" x2="17.4766" y2="16.6677" gradientUnits="userSpaceOnUse">
<stop stop-color="#B4F5F2"/>
<stop offset="1" stop-color="#2D93C9"/>
</linearGradient>
<linearGradient id="paint25_linear_209_4588" x1="21.8973" y1="17.8318" x2="21.8647" y2="15.1644" gradientUnits="userSpaceOnUse">
<stop stop-color="#0BBDFB"/>
<stop offset="1" stop-color="#1562AA"/>
</linearGradient>
<linearGradient id="paint26_linear_209_4588" x1="22.4743" y1="16.3259" x2="17.5501" y2="16.326" gradientUnits="userSpaceOnUse">
<stop stop-color="#5BA5E9"/>
<stop offset="1" stop-color="#7DC8FF"/>
</linearGradient>
<linearGradient id="paint27_linear_209_4588" x1="19.5396" y1="32.7345" x2="18.5729" y2="18.7211" gradientUnits="userSpaceOnUse">
<stop stop-color="#0BBDFB"/>
<stop offset="1" stop-color="#1562AA"/>
</linearGradient>
<linearGradient id="paint28_linear_209_4588" x1="20.0782" y1="24.7867" x2="15.4822" y2="24.7867" gradientUnits="userSpaceOnUse">
<stop stop-color="#5BA5E9"/>
<stop offset="1" stop-color="#7DC8FF"/>
</linearGradient>
<linearGradient id="paint29_linear_209_4588" x1="24.2057" y1="16.8405" x2="23.1824" y2="30.9948" gradientUnits="userSpaceOnUse">
<stop stop-color="#0BBDFB"/>
<stop offset="1" stop-color="#1562AA"/>
</linearGradient>
<linearGradient id="paint30_linear_209_4588" x1="24.7251" y1="24.872" x2="20.2932" y2="24.872" gradientUnits="userSpaceOnUse">
<stop stop-color="#5BA5E9"/>
<stop offset="1" stop-color="#7DC8FF"/>
</linearGradient>
<linearGradient id="paint31_linear_209_4588" x1="12.8351" y1="26.4961" x2="12.8351" y2="31.7946" gradientUnits="userSpaceOnUse">
<stop stop-color="#4BA3CA"/>
<stop offset="1" stop-color="#CDEEFF"/>
</linearGradient>
<linearGradient id="paint32_linear_209_4588" x1="11.9755" y1="27.5215" x2="11.9755" y2="33.3328" gradientUnits="userSpaceOnUse">
<stop stop-color="#4BA3CA"/>
<stop offset="1" stop-color="#CDEEFF"/>
</linearGradient>
<linearGradient id="paint33_linear_209_4588" x1="16.6174" y1="33.333" x2="16.6174" y2="30.7692" gradientUnits="userSpaceOnUse">
<stop stop-color="#4BA3CA"/>
<stop offset="1" stop-color="#CDEEFF"/>
</linearGradient>
<linearGradient id="paint34_linear_209_4588" x1="27.7274" y1="30.5342" x2="27.7274" y2="35.8327" gradientUnits="userSpaceOnUse">
<stop stop-color="#4BA3CA"/>
<stop offset="1" stop-color="#CDEEFF"/>
</linearGradient>
<linearGradient id="paint35_linear_209_4588" x1="28.587" y1="31.5596" x2="28.587" y2="37.3709" gradientUnits="userSpaceOnUse">
<stop stop-color="#4BA3CA"/>
<stop offset="1" stop-color="#CDEEFF"/>
</linearGradient>
<linearGradient id="paint36_linear_209_4588" x1="23.9451" y1="37.3711" x2="23.9451" y2="34.8073" gradientUnits="userSpaceOnUse">
<stop stop-color="#4BA3CA"/>
<stop offset="1" stop-color="#CDEEFF"/>
</linearGradient>
</defs>
</svg>
