<svg width="48" height="49" viewBox="0 0 48 49" fill="none" xmlns="http://www.w3.org/2000/svg">
<g id="Frame 270">
<g id="Group 418">
<g id="Group 325">
<path id="Subtract" fill-rule="evenodd" clip-rule="evenodd" d="M4.60576 20.4528C3.54564 19.3162 3 18.098 3 16.8678C3 16.8587 3.00003 16.8495 3.00009 16.8403H3V16.8678V32.8262C3 37.5995 12.4458 41.4612 24.0721 41.4612C35.6984 41.4612 45.1442 37.5903 45.1442 32.8216V17.4848C44.9927 18.5039 44.4667 19.5066 43.5842 20.4528C42.5241 21.5893 40.9703 22.622 39.0114 23.4919C37.0526 24.3618 34.7271 25.0519 32.1677 25.5226C29.6083 25.9934 26.8652 26.2357 24.095 26.2357C21.3248 26.2357 18.5817 25.9934 16.0223 25.5226C13.4629 25.0519 11.1374 24.3618 9.17858 23.4919C7.21973 22.622 5.66588 21.5893 4.60576 20.4528Z" fill="url(#paint0_linear_209_5095)"/>
<path id="Vector (Stroke)" fill-rule="evenodd" clip-rule="evenodd" d="M4.72476 27.5277C3.61919 26.3044 3 25.435 3 24V22.5C3 23.5112 4.78697 25.564 5.724 26.6008C6.66505 27.642 8.07642 28.6207 9.90897 29.4605C11.7377 30.2986 13.9245 30.9702 16.3476 31.4302C18.7696 31.89 21.3704 32.1275 24 32.1275C26.6296 32.1275 29.2304 31.89 31.6523 31.4302C34.0755 30.9702 36.2623 30.2986 38.091 29.4605C39.9236 28.6207 41.3349 27.642 42.276 26.6008C43.213 25.564 45 23.5112 45 22.5V24C45 25.435 44.3808 26.3044 43.2752 27.5277C42.1737 28.7465 40.5911 29.8212 38.6494 30.7111C36.7039 31.6027 34.41 32.3032 31.9019 32.7793C29.3926 33.2556 26.708 33.5 24 33.5C21.292 33.5 18.6074 33.2556 16.0981 32.7793C13.59 32.3032 11.2961 31.6027 9.35055 30.7111C7.40886 29.8212 5.82633 28.7465 4.72476 27.5277Z" fill="#46C1A5"/>
<path id="Vector" d="M3 17C3 18.2476 3.54318 19.4829 4.59853 20.6355C5.65388 21.7881 7.20073 22.8354 9.15076 23.7175C11.1008 24.5997 13.4158 25.2994 15.9636 25.7769C18.5115 26.2543 21.2422 26.5 24 26.5C26.7578 26.5 29.4885 26.2543 32.0364 25.7769C34.5842 25.2994 36.8992 24.5997 38.8492 23.7175C40.7993 22.8354 42.3461 21.7881 43.4015 20.6355C44.4568 19.4829 45 18.2476 45 17C45 15.7524 44.4568 14.5171 43.4015 13.3645C42.3461 12.2119 40.7993 11.1646 38.8492 10.2825C36.8992 9.40033 34.5842 8.70056 32.0364 8.22314C29.4885 7.74572 26.7578 7.5 24 7.5C21.2422 7.5 18.5115 7.74572 15.9636 8.22314C13.4158 8.70056 11.1008 9.40033 9.15076 10.2825C7.20073 11.1646 5.65388 12.2119 4.59853 13.3645C3.54318 14.5171 3 15.7524 3 17Z" fill="#5DCCB3"/>
</g>
<g id="Group 326">
<g id="Group 275">
<g id="Group 274">
<path id="Vector 1" d="M13.0366 21.0737H32.1684" stroke="white" stroke-width="1.6"/>
<path id="Polygon 1" d="M34.9318 21.0735L30.4361 22.9796L30.4993 19.1674L34.9318 21.0735Z" fill="white"/>
</g>
</g>
<g id="Group 276">
<g id="Group 274_2">
<path id="Vector 1_2" d="M34.9927 17.3877H15.8609" stroke="white" stroke-width="1.6"/>
<path id="Polygon 1_2" d="M13.0978 17.3875L17.5302 19.2936L17.5935 15.4814L13.0978 17.3875Z" fill="white"/>
</g>
</g>
<g id="Group 277">
<g id="Group 274_3">
<path id="Vector 1_3" d="M13.1587 13.7012H32.2904" stroke="white" stroke-width="1.6"/>
<path id="Polygon 1_3" d="M35.0538 13.701L30.5582 15.6071L30.6214 11.7949L35.0538 13.701Z" fill="white"/>
</g>
</g>
</g>
</g>
<path id="&#229;&#133;&#182;&#228;&#187;&#150;" d="M13.4717 39.5054C13.6335 39.6466 13.8499 39.7629 14.1211 39.854C14.3923 39.9451 14.6497 39.9907 14.8936 39.9907C15.6364 39.9907 16.0078 39.7264 16.0078 39.1978C16.0078 39.0496 15.9679 38.9163 15.8882 38.7979C15.8084 38.6794 15.6991 38.5745 15.5601 38.4834C15.4211 38.3923 15.1602 38.2521 14.7773 38.063C14.2464 37.7987 13.8966 37.5537 13.728 37.3281C13.5594 37.1003 13.4751 36.8405 13.4751 36.5488C13.4751 36.109 13.6517 35.7604 14.0049 35.5029C14.3581 35.2454 14.8035 35.1167 15.3413 35.1167C15.8677 35.1167 16.2539 35.1805 16.5 35.3081V36.0532C16.181 35.8322 15.7777 35.7217 15.29 35.7217C14.9665 35.7217 14.7021 35.79 14.4971 35.9268C14.2943 36.0612 14.1929 36.2492 14.1929 36.4907C14.1929 36.7049 14.2635 36.8792 14.4048 37.0137C14.5461 37.1481 14.8525 37.3315 15.3242 37.564C15.8438 37.8123 16.2072 38.0607 16.4146 38.3091C16.6219 38.5575 16.7256 38.8366 16.7256 39.1465C16.7256 39.6113 16.557 39.9679 16.2197 40.2163C15.8825 40.4647 15.4142 40.5889 14.8149 40.5889C14.6053 40.5889 14.3604 40.5592 14.0801 40.5C13.8021 40.443 13.5993 40.3713 13.4717 40.2847V39.5054ZM19.6206 38.6611H17.6074V38.145H19.6206V38.6611ZM23.5786 40.5H20.7861V35.2056H21.4697V39.895H23.5786V40.5ZM27.376 38.7808H24.7305C24.7419 39.1841 24.8524 39.4963 25.062 39.7173C25.2716 39.936 25.5645 40.0454 25.9404 40.0454C26.3643 40.0454 26.7528 39.9098 27.106 39.6387V40.2368C26.7733 40.4715 26.3324 40.5889 25.7832 40.5889C25.2363 40.5889 24.8091 40.4157 24.5015 40.0693C24.1961 39.723 24.0435 39.2422 24.0435 38.627C24.0435 38.0482 24.2109 37.5708 24.5459 37.1948C24.8831 36.8188 25.3013 36.6309 25.8003 36.6309C26.2948 36.6309 26.681 36.7904 26.959 37.1094C27.237 37.4261 27.376 37.8704 27.376 38.4424V38.7808ZM26.7061 38.2441C26.7038 37.9023 26.6229 37.638 26.4634 37.4512C26.3039 37.2643 26.0794 37.1709 25.79 37.1709C25.5234 37.1709 25.2922 37.27 25.0962 37.4683C24.9025 37.6665 24.7806 37.9251 24.7305 38.2441H26.7061ZM28.3569 36.9829C28.7329 36.7482 29.167 36.6309 29.6592 36.6309C30.5706 36.6309 31.0264 37.1094 31.0264 38.0664V40.5H30.3633V39.9155H30.3462C30.0841 40.3644 29.6979 40.5889 29.1875 40.5889C28.8206 40.5889 28.529 40.4897 28.3125 40.2915C28.096 40.0933 27.9878 39.8255 27.9878 39.4883C27.9878 38.7819 28.4059 38.3706 29.2422 38.2544L30.3633 38.0972C30.3633 37.4797 30.1081 37.1709 29.5977 37.1709C29.1442 37.1709 28.7306 37.3236 28.3569 37.6289V36.9829ZM29.478 38.7227C29.1681 38.7637 28.9539 38.8411 28.8354 38.9551C28.7192 39.069 28.6611 39.2285 28.6611 39.4336C28.6611 39.6136 28.7249 39.7606 28.8525 39.8745C28.9801 39.9884 29.1488 40.0454 29.3584 40.0454C29.6501 40.0454 29.8905 39.9429 30.0796 39.7378C30.2687 39.5327 30.3633 39.2752 30.3633 38.9653V38.603L29.478 38.7227ZM34.0752 35.4756C33.9499 35.4095 33.8143 35.3765 33.6685 35.3765C33.2492 35.3765 33.0396 35.6362 33.0396 36.1558V36.7197H33.9248V37.2734H33.0396V40.5H32.3765V37.2734H31.7305V36.7197H32.3765V36.125C32.3765 35.7194 32.4927 35.4015 32.7251 35.1714C32.9598 34.939 33.2572 34.8228 33.6172 34.8228C33.8086 34.8228 33.9613 34.8444 34.0752 34.8877V35.4756Z" fill="white"/>
</g>
<defs>
<linearGradient id="paint0_linear_209_5095" x1="4.97664" y1="28.9284" x2="45.4977" y2="28.9284" gradientUnits="userSpaceOnUse">
<stop stop-color="#2DA388"/>
<stop offset="0.505208" stop-color="#115B57"/>
<stop offset="1" stop-color="#0B3C43"/>
</linearGradient>
</defs>
</svg>
