<svg width="48" height="48" viewBox="0 0 48 48" fill="none" xmlns="http://www.w3.org/2000/svg">
<g id="Group 239">
<g id="Group 237">
<g id="Frame 239">
<g id="Group 461">
<g id="Group 330">
<g id="Group 288">
<path id="Subtract" fill-rule="evenodd" clip-rule="evenodd" d="M4.60576 17.9529C3.54564 16.8163 3 15.5982 3 14.3679C3 14.3588 3.00003 14.3496 3.00009 14.3405H3V14.3679V34.3263C3 39.0996 12.4458 42.9613 24.0721 42.9613C35.6984 42.9613 45.1442 39.0904 45.1442 34.3217V14.985C44.9927 16.0041 44.4667 17.0068 43.5842 17.9529C42.5241 19.0895 40.9703 20.1222 39.0114 20.9921C37.0526 21.862 34.7271 22.552 32.1677 23.0228C29.6083 23.4936 26.8652 23.7359 24.095 23.7359C21.3248 23.7359 18.5817 23.4936 16.0223 23.0228C13.4629 22.552 11.1374 21.862 9.17858 20.9921C7.21973 20.1222 5.66588 19.0895 4.60576 17.9529Z" fill="url(#paint0_linear_248_2727)"/>
<path id="Vector" d="M3 14.5C3 15.7476 3.54318 16.9829 4.59853 18.1355C5.65388 19.2881 7.20073 20.3354 9.15076 21.2175C11.1008 22.0997 13.4158 22.7994 15.9636 23.2769C18.5115 23.7543 21.2422 24 24 24C26.7578 24 29.4885 23.7543 32.0364 23.2769C34.5842 22.7994 36.8992 22.0997 38.8492 21.2175C40.7993 20.3354 42.3461 19.2881 43.4015 18.1355C44.4568 16.9829 45 15.7476 45 14.5C45 13.2524 44.4568 12.0171 43.4015 10.8645C42.3461 9.71191 40.7993 8.66464 38.8492 7.78249C36.8992 6.90033 34.5842 6.20056 32.0364 5.72314C29.4885 5.24572 26.7578 5 24 5C21.2422 5 18.5115 5.24572 15.9636 5.72314C13.4158 6.20056 11.1008 6.90033 9.15076 7.78249C7.20073 8.66464 5.65388 9.71191 4.59853 10.8645C3.54318 12.0171 3 13.2524 3 14.5Z" fill="#5DCCB3"/>
</g>
</g>
<g id="Group 331">
<g id="&#232;&#183;&#175;&#229;&#190;&#132; 7">
<path id="Vector_2" d="M26.886 11.9938H14.3721L14.3866 10.7789H26.8825L26.886 11.9938Z" fill="white"/>
</g>
<path id="&#232;&#183;&#175;&#229;&#190;&#132; 8" d="M11.2529 11.3855L15.6441 9.96273L15.6133 12.8145L11.2529 11.3855Z" fill="white"/>
<g id="&#232;&#183;&#175;&#229;&#190;&#132; 9">
<path id="Vector_3" d="M34.6061 18.1218H22.001L22.0045 16.8891H34.5913L34.6061 18.1218Z" fill="white"/>
</g>
<path id="&#232;&#183;&#175;&#229;&#190;&#132; 10" d="M37.7469 17.505L33.3232 16.0603L33.3541 18.9528L37.7469 17.505Z" fill="white"/>
<g id="&#232;&#183;&#175;&#229;&#190;&#132; 11">
<path id="Vector_4" d="M30.6632 15.819H28.4982L28.4644 8.74952H30.6112L30.6632 15.819Z" fill="white"/>
</g>
<path id="&#232;&#183;&#175;&#229;&#190;&#132; 12" d="M29.5264 7L32.0617 9.44999H27.0127L29.5264 7Z" fill="white"/>
<g id="&#232;&#183;&#175;&#229;&#190;&#132; 13">
<path id="Vector_5" d="M19.8124 20.3602H17.6357L17.6931 13.2149H19.8514L19.8124 20.3602Z" fill="white"/>
</g>
<path id="&#232;&#183;&#175;&#229;&#190;&#132; 14" d="M18.7135 22.1659L16.1782 19.6409H21.2812L18.7135 22.1659Z" fill="white"/>
<g id="&#230;&#164;&#173;&#229;&#156;&#134; 1">
<path id="Vector_6" d="M24.3266 18.4774C23.3643 18.4774 22.4471 18.3661 21.613 18.1649C20.7793 17.9639 20.029 17.6732 19.3997 17.3145C18.771 16.9561 18.2633 16.5299 17.914 16.0573C17.5651 15.5853 17.3744 15.0673 17.379 14.5246C17.3835 13.9826 17.5824 13.4665 17.9377 12.9974C18.2926 12.5288 18.8035 12.107 19.4329 11.753C20.0618 11.3992 20.809 11.1131 21.6373 10.9153C22.4652 10.7177 23.3744 10.6084 24.3278 10.6084C25.2811 10.6084 26.1903 10.7177 27.0181 10.9153C27.8463 11.1131 28.5935 11.3992 29.2223 11.753C29.8515 12.107 30.3624 12.5288 30.7171 12.9974C31.0722 13.4665 31.271 13.9826 31.2754 14.5246C31.2798 15.0673 31.0889 15.5853 30.7399 16.0573C30.3905 16.5299 29.8827 16.9561 29.2538 17.3145C28.6244 17.6732 27.874 17.9639 27.0403 18.1649C26.2061 18.3661 25.2889 18.4774 24.3266 18.4774ZM24.3275 12.3444C23.7968 12.3444 23.2907 12.4054 22.83 12.5156C22.3691 12.6259 21.9536 12.7854 21.6042 12.9825C21.2546 13.1798 20.9711 13.4146 20.7746 13.6754C20.578 13.9364 20.4685 14.2234 20.4671 14.5246C20.4656 14.826 20.5726 15.1136 20.7672 15.3754C20.9619 15.6374 21.2443 15.8737 21.5937 16.0723C21.9433 16.2709 22.3597 16.4319 22.8222 16.5431C23.2848 16.6544 23.7934 16.716 24.3269 16.716C24.8603 16.716 25.3689 16.6544 25.8316 16.5431C26.2941 16.4319 26.7106 16.2709 27.0602 16.0723C27.4096 15.8737 27.6921 15.6374 27.8869 15.3754C28.0816 15.1136 28.1886 14.826 28.1873 14.5246C28.1859 14.2234 28.0765 13.9364 27.88 13.6754C27.6836 13.4146 27.4002 13.1798 27.0506 12.9825C26.7013 12.7854 26.2858 12.6259 25.825 12.5156C25.3643 12.4054 24.8582 12.3444 24.3275 12.3444Z" fill="white"/>
</g>
</g>
<path id="Vector (Stroke)" fill-rule="evenodd" clip-rule="evenodd" d="M4.72476 25.0277C3.61919 23.8044 3 22.935 3 21.5V20C3 21.0112 4.78697 23.064 5.724 24.1008C6.66505 25.142 8.07642 26.1207 9.90897 26.9605C11.7377 27.7986 13.9245 28.4702 16.3476 28.9302C18.7696 29.39 21.3704 29.6275 24 29.6275C26.6296 29.6275 29.2304 29.39 31.6523 28.9302C34.0755 28.4702 36.2623 27.7986 38.091 26.9605C39.9236 26.1207 41.3349 25.142 42.276 24.1008C43.213 23.064 45 21.0112 45 20V21.5C45 22.935 44.3808 23.8044 43.2752 25.0277C42.1737 26.2465 40.5911 27.3212 38.6494 28.2111C36.7039 29.1027 34.41 29.8032 31.9019 30.2793C29.3926 30.7556 26.708 31 24 31C21.292 31 18.6074 30.7556 16.0981 30.2793C13.59 29.8032 11.2961 29.1027 9.35055 28.2111C7.40886 27.3212 5.82633 26.2465 4.72476 25.0277Z" fill="#46C1A5"/>
<path id="Vector (Stroke)_2" fill-rule="evenodd" clip-rule="evenodd" d="M4.72476 32.0277C3.61919 30.8044 3 29.935 3 28.5V27C3 28.0112 4.78697 30.064 5.724 31.1008C6.66505 32.142 8.07642 33.1207 9.90897 33.9605C11.7377 34.7986 13.9245 35.4702 16.3476 35.9302C18.7696 36.39 21.3704 36.6275 24 36.6275C26.6296 36.6275 29.2304 36.39 31.6523 35.9302C34.0755 35.4702 36.2623 34.7986 38.091 33.9605C39.9236 33.1207 41.3349 32.142 42.276 31.1008C43.213 30.064 45 28.0112 45 27V28.5C45 29.935 44.3808 30.8044 43.2752 32.0277C42.1737 33.2465 40.5911 34.3212 38.6494 35.2111C36.7039 36.1027 34.41 36.8032 31.9019 37.2793C29.3926 37.7556 26.708 38 24 38C21.292 38 18.6074 37.7556 16.0981 37.2793C13.59 36.8032 11.2961 36.1027 9.35055 35.2111C7.40886 34.3212 5.82633 33.2465 4.72476 32.0277Z" fill="#46C1A5"/>
<g id="Group">
<path id="S" d="M14.5804 33.2463C14.7103 33.403 14.8862 33.5503 15.1082 33.6881C15.3301 33.8259 15.5421 33.9217 15.744 33.9754C16.3594 34.1391 16.6747 33.9945 16.6901 33.5416C16.6944 33.4148 16.6652 33.2918 16.6026 33.1727C16.54 33.0536 16.4524 32.9397 16.34 32.831C16.2275 32.7223 16.0154 32.5448 15.7038 32.2984C15.2717 31.955 14.9891 31.6681 14.856 31.4377C14.723 31.2053 14.6607 30.9642 14.6692 30.7144C14.6819 30.3376 14.8384 30.0779 15.1384 29.9351C15.4385 29.7924 15.8112 29.7803 16.2567 29.8987C16.6927 30.0147 17.0107 30.1545 17.2109 30.318L17.1892 30.9563C16.9314 30.6967 16.6005 30.5131 16.1966 30.4057C15.9286 30.3344 15.7076 30.3347 15.5338 30.4067C15.3619 30.4771 15.2724 30.6158 15.2654 30.8227C15.2592 31.0062 15.3126 31.1711 15.4257 31.3174C15.5388 31.4637 15.7874 31.6884 16.1713 31.9914C16.5945 32.3187 16.8883 32.6115 17.0528 32.87C17.2174 33.1284 17.2951 33.3904 17.2861 33.6559C17.2726 34.0541 17.1226 34.3224 16.836 34.4609C16.5494 34.5993 16.1579 34.6025 15.6615 34.4705C15.4879 34.4243 15.2858 34.345 15.0554 34.2324C14.8268 34.1224 14.6609 34.0162 14.5577 33.9139L14.5804 33.2463Z" fill="white"/>
<path id="p" d="M19.8339 34.6984L19.8046 36.6464L19.2343 36.5792L19.3055 31.8483L19.8758 31.9155L19.8674 32.475L19.879 32.4764C20.1375 32.0824 20.5093 31.9139 20.9942 31.9711C21.4054 32.0196 21.7252 32.2031 21.9536 32.5215C22.1839 32.8382 22.2954 33.2407 22.2881 33.7289C22.28 34.2679 22.1406 34.6858 21.8699 34.9826C21.6012 35.2776 21.2428 35.3987 20.7948 35.3458C20.3816 35.2971 20.0652 35.0818 19.8456 34.6998L19.8339 34.6984ZM19.8442 33.8193C19.8403 34.0829 19.9213 34.3155 20.0873 34.517C20.2534 34.7166 20.4634 34.8314 20.7175 34.8613C21.0201 34.897 21.2585 34.8077 21.4327 34.5935C21.607 34.3793 21.6972 34.0652 21.7034 33.6512C21.7087 33.3016 21.6333 33.0188 21.4772 32.8028C21.3211 32.5849 21.1054 32.4596 20.8299 32.4272C20.5487 32.394 20.3164 32.4673 20.1329 32.6472C19.9495 32.8271 19.8554 33.0742 19.8507 33.3887L19.8442 33.8193Z" fill="white"/>
<path id="i" d="M23.7627 30.9909C23.7626 30.8893 23.7967 30.8041 23.865 30.7353C23.9353 30.6644 24.0212 30.6286 24.1227 30.6279C24.2263 30.6271 24.3132 30.6607 24.3836 30.7285C24.4559 30.7963 24.4921 30.882 24.4922 30.9855C24.4923 31.0871 24.4563 31.1723 24.3841 31.2412C24.3138 31.3081 24.2269 31.342 24.1234 31.3427C24.0199 31.3435 23.9339 31.3109 23.8655 31.245C23.7971 31.1772 23.7628 31.0925 23.7627 30.9909ZM23.8342 35.3732L23.8312 32.133L24.4054 32.1288L24.4084 35.369L23.8342 35.3732Z" fill="white"/>
<path id="n" d="M29.7432 34.8327L29.1769 34.9079L29.1457 33.0654C29.1344 32.3994 28.8878 32.0985 28.4057 32.1624C28.1559 32.1956 27.9522 32.3166 27.7947 32.5254C27.6372 32.7341 27.5609 32.9821 27.5657 33.2692L27.597 35.1175L27.0278 35.1931L26.9729 31.9533L27.5422 31.8777L27.5512 32.4138L27.5629 32.4123C27.798 31.972 28.1459 31.7213 28.6067 31.6601C28.9591 31.6134 29.2292 31.692 29.417 31.8961C29.6048 32.0982 29.7023 32.417 29.7097 32.8525L29.7432 34.8327Z" fill="white"/>
<path id="e" d="M34.076 32.1945L31.8887 32.7926C31.9102 33.1355 32.0109 33.378 32.1908 33.5199C32.3707 33.6599 32.616 33.6874 32.9269 33.6024C33.2773 33.5066 33.5945 33.3026 33.8784 32.9905L33.8963 33.5029C33.6282 33.7791 33.2672 33.9793 32.8131 34.1035C32.361 34.2271 32.0026 34.1754 31.7379 33.9482C31.4751 33.7205 31.3345 33.3432 31.3161 32.8162C31.2988 32.3204 31.423 31.8736 31.6887 31.4758C31.9563 31.0775 32.2964 30.8219 32.709 30.7091C33.1178 30.5973 33.4419 30.6466 33.6813 30.8571C33.9206 31.0655 34.0488 31.4147 34.0659 31.9047L34.076 32.1945ZM33.5061 31.8863C33.494 31.594 33.4192 31.3859 33.2817 31.2619C33.1443 31.1379 32.9559 31.1086 32.7166 31.174C32.4962 31.2343 32.308 31.3715 32.1519 31.5856C31.9976 31.7992 31.9046 32.0483 31.8727 32.3329L33.5061 31.8863Z" fill="white"/>
</g>
</g>
</g>
</g>
</g>
<defs>
<linearGradient id="paint0_linear_248_2727" x1="4.97664" y1="28.3924" x2="45.4977" y2="28.3924" gradientUnits="userSpaceOnUse">
<stop stop-color="#2DA388"/>
<stop offset="0.505208" stop-color="#115B57"/>
<stop offset="1" stop-color="#0B3C43"/>
</linearGradient>
</defs>
</svg>
