<svg width="49" height="48" viewBox="0 0 49 48" fill="none" xmlns="http://www.w3.org/2000/svg">
<g id="Super-Spine">
<g id="Group 420">
<g id="Group 288">
<path id="Subtract" fill-rule="evenodd" clip-rule="evenodd" d="M5.2072 17.8745C4.1507 16.7626 3.60693 15.5708 3.60693 14.3673C3.60693 14.3583 3.60696 14.3493 3.60702 14.3403H3.60693V14.3673V33.8927C3.60693 38.5624 13.0204 42.3403 24.6069 42.3403C36.1935 42.3403 45.6069 38.5534 45.6069 33.8882V14.971C45.456 15.968 44.9318 16.9489 44.0523 17.8745C42.9958 18.9864 41.4473 19.9967 39.4951 20.8478C37.543 21.6988 35.2255 22.3738 32.6748 22.8344C30.1242 23.295 27.3905 23.532 24.6298 23.532C21.869 23.532 19.1353 23.295 16.5847 22.8344C14.0341 22.3738 11.7165 21.6988 9.76438 20.8478C7.81223 19.9967 6.2637 18.9864 5.2072 17.8745Z" fill="url(#paint0_linear_209_3408)"/>
<path id="Vector (Stroke)" fill-rule="evenodd" clip-rule="evenodd" d="M5.22476 23.0277C4.11919 21.8044 3.5 20.935 3.5 19.5V18C3.5 19.0112 5.28697 21.064 6.224 22.1008C7.16505 23.142 8.57642 24.1207 10.409 24.9605C12.2377 25.7986 14.4245 26.4702 16.8476 26.9302C19.2696 27.39 21.8704 27.6275 24.5 27.6275C27.1296 27.6275 29.7304 27.39 32.1523 26.9302C34.5755 26.4702 36.7623 25.7986 38.591 24.9605C40.4236 24.1207 41.8349 23.142 42.776 22.1008C43.713 21.064 45.5 19.0112 45.5 18V19.5C45.5 20.935 44.8808 21.8044 43.7752 23.0277C42.6737 24.2465 41.0911 25.3212 39.1494 26.2111C37.2039 27.1027 34.91 27.8032 32.4019 28.2793C29.8926 28.7556 27.208 29 24.5 29C21.792 29 19.1074 28.7556 16.5981 28.2793C14.09 27.8032 11.7961 27.1027 9.85055 26.2111C7.90886 25.3212 6.32633 24.2465 5.22476 23.0277Z" fill="#46C1A5"/>
<path id="Vector (Stroke)_2" fill-rule="evenodd" clip-rule="evenodd" d="M5.22476 30.0277C4.11919 28.8044 3.5 27.935 3.5 26.5V25C3.5 26.0112 5.28697 28.064 6.224 29.1008C7.16505 30.142 8.57642 31.1207 10.409 31.9605C12.2377 32.7986 14.4245 33.4702 16.8476 33.9302C19.2696 34.39 21.8704 34.6275 24.5 34.6275C27.1296 34.6275 29.7304 34.39 32.1523 33.9302C34.5755 33.4702 36.7623 32.7986 38.591 31.9605C40.4236 31.1207 41.8349 30.142 42.776 29.1008C43.713 28.064 45.5 26.0112 45.5 25V26.5C45.5 27.935 44.8808 28.8044 43.7752 30.0277C42.6737 31.2465 41.0911 32.3212 39.1494 33.2111C37.2039 34.1027 34.91 34.8032 32.4019 35.2793C29.8926 35.7556 27.208 36 24.5 36C21.792 36 19.1074 35.7556 16.5981 35.2793C14.09 34.8032 11.7961 34.1027 9.85055 33.2111C7.90886 32.3212 6.32633 31.2465 5.22476 30.0277Z" fill="#46C1A5"/>
<path id="Vector" d="M3.60693 14.5C3.60693 15.7476 4.15011 16.9829 5.20546 18.1355C6.26081 19.2881 7.80766 20.3354 9.75769 21.2175C11.7077 22.0997 14.0227 22.7994 16.5706 23.2769C19.1184 23.7543 21.8492 24 24.6069 24C27.3647 24 30.0954 23.7543 32.6433 23.2769C35.1911 22.7994 37.5061 22.0997 39.4562 21.2175C41.4062 20.3354 42.9531 19.2881 44.0084 18.1355C45.0637 16.9829 45.6069 15.7476 45.6069 14.5C45.6069 13.2524 45.0637 12.0171 44.0084 10.8645C42.9531 9.71191 41.4062 8.66464 39.4562 7.78249C37.5061 6.90033 35.1911 6.20056 32.6433 5.72314C30.0954 5.24572 27.3647 5 24.6069 5C21.8492 5 19.1184 5.24572 16.5706 5.72314C14.0227 6.20056 11.7077 6.90033 9.75769 7.78249C7.80766 8.66464 6.26081 9.71191 5.20546 10.8645C4.15011 12.0171 3.60693 13.2524 3.60693 14.5Z" fill="#5DCCB3"/>
</g>
</g>
<g id="Group 421">
<g id="&#232;&#183;&#175;&#229;&#190;&#132; 7">
<path id="Vector_2" d="M26.133 11.9938H13.6191L13.6337 10.7788H26.1295L26.133 11.9938Z" fill="white"/>
</g>
<path id="&#232;&#183;&#175;&#229;&#190;&#132; 8" d="M10.5 11.3857L14.8912 9.96289L14.8603 12.8147L10.5 11.3857Z" fill="white"/>
<g id="&#232;&#183;&#175;&#229;&#190;&#132; 9">
<path id="Vector_3" d="M33.8531 18.1219H21.248L21.2516 16.8892H33.8384L33.8531 18.1219Z" fill="white"/>
</g>
<path id="&#232;&#183;&#175;&#229;&#190;&#132; 10" d="M36.9939 17.5052L32.5703 16.0605L32.6012 18.953L36.9939 17.5052Z" fill="white"/>
<g id="&#232;&#183;&#175;&#229;&#190;&#132; 11">
<path id="Vector_4" d="M29.9102 15.819H27.7453L27.7114 8.74951H29.8583L29.9102 15.819Z" fill="white"/>
</g>
<path id="&#232;&#183;&#175;&#229;&#190;&#132; 12" d="M28.7734 7L31.3087 9.44999H26.2598L28.7734 7Z" fill="white"/>
<g id="&#232;&#183;&#175;&#229;&#190;&#132; 13">
<path id="Vector_5" d="M19.0594 20.3602H16.8828L16.9401 13.2148H19.0984L19.0594 20.3602Z" fill="white"/>
</g>
<path id="&#232;&#183;&#175;&#229;&#190;&#132; 14" d="M17.9606 22.1661L15.4253 19.6411H20.5283L17.9606 22.1661Z" fill="white"/>
<g id="&#230;&#164;&#173;&#229;&#156;&#134; 1">
<path id="Vector_6" d="M23.5737 18.4774C22.6114 18.4774 21.6942 18.366 20.8601 18.1649C20.0264 17.9639 19.2761 17.6732 18.6468 17.3145C18.018 16.9561 17.5103 16.5298 17.1611 16.0573C16.8122 15.5853 16.6215 15.0673 16.6261 14.5245C16.6306 13.9825 16.8295 13.4664 17.1848 12.9973C17.5396 12.5287 18.0506 12.107 18.68 11.7529C19.3088 11.3992 20.0561 11.113 20.8844 10.9153C21.7123 10.7177 22.6215 10.6084 23.5748 10.6084C24.5282 10.6084 25.4373 10.7177 26.2652 10.9153C27.0934 11.113 27.8406 11.3992 28.4693 11.7529C29.0986 12.107 29.6095 12.5287 29.9642 12.9973C30.3193 13.4664 30.518 13.9825 30.5224 14.5245C30.5268 15.0673 30.336 15.5853 29.9869 16.0573C29.6376 16.5298 29.1297 16.9561 28.5009 17.3145C27.8715 17.6732 27.1211 17.9639 26.2873 18.1649C25.4532 18.366 24.536 18.4774 23.5737 18.4774ZM23.5746 12.3444C23.0438 12.3444 22.5377 12.4054 22.077 12.5156C21.6162 12.6258 21.2007 12.7854 20.8512 12.9825C20.5016 13.1797 20.2181 13.4146 20.0217 13.6754C19.8251 13.9364 19.7156 14.2233 19.7141 14.5245C19.7127 14.826 19.8197 15.1135 20.0143 15.3754C20.209 15.6374 20.4914 15.8737 20.8408 16.0722C21.1903 16.2709 21.6068 16.4318 22.0693 16.5431C22.5319 16.6544 23.0404 16.716 23.5739 16.716C24.1074 16.716 24.616 16.6544 25.0786 16.5431C25.5411 16.4318 25.9577 16.2709 26.3072 16.0722C26.6567 15.8737 26.9392 15.6374 27.134 15.3754C27.3287 15.1135 27.4357 14.826 27.4343 14.5245C27.433 14.2233 27.3236 13.9364 27.1271 13.6754C26.9307 13.4146 26.6472 13.1797 26.2977 12.9825C25.9483 12.7854 25.5328 12.6258 25.0721 12.5156C24.6114 12.4054 24.1053 12.3444 23.5746 12.3444Z" fill="white"/>
</g>
<path id="&#229;&#133;&#182;&#228;&#187;&#150;" d="M16.7783 32.1475C16.917 32.2686 17.1025 32.3682 17.335 32.4463C17.5674 32.5244 17.7881 32.5635 17.9971 32.5635C18.6338 32.5635 18.9521 32.3369 18.9521 31.8838C18.9521 31.7568 18.918 31.6426 18.8496 31.541C18.7812 31.4395 18.6875 31.3496 18.5684 31.2715C18.4492 31.1934 18.2256 31.0732 17.8975 30.9111C17.4424 30.6846 17.1426 30.4746 16.998 30.2812C16.8535 30.0859 16.7812 29.8633 16.7812 29.6133C16.7812 29.2363 16.9326 28.9375 17.2354 28.7168C17.5381 28.4961 17.9199 28.3857 18.3809 28.3857C18.832 28.3857 19.1631 28.4404 19.374 28.5498V29.1885C19.1006 28.999 18.7549 28.9043 18.3369 28.9043C18.0596 28.9043 17.833 28.9629 17.6572 29.0801C17.4834 29.1953 17.3965 29.3564 17.3965 29.5635C17.3965 29.7471 17.457 29.8965 17.5781 30.0117C17.6992 30.127 17.9619 30.2842 18.3662 30.4834C18.8115 30.6963 19.123 30.9092 19.3008 31.1221C19.4785 31.335 19.5674 31.5742 19.5674 31.8398C19.5674 32.2383 19.4229 32.5439 19.1338 32.7568C18.8447 32.9697 18.4434 33.0762 17.9297 33.0762C17.75 33.0762 17.54 33.0508 17.2998 33C17.0615 32.9512 16.8877 32.8896 16.7783 32.8154V32.1475ZM23.0537 33H22.4766V32.4902H22.4648C22.248 32.8809 21.915 33.0762 21.4658 33.0762C20.6982 33.0762 20.3145 32.6172 20.3145 31.6992V29.7598H20.8828V31.6143C20.8828 32.2725 21.1348 32.6016 21.6387 32.6016C21.8887 32.6016 22.0908 32.5098 22.2451 32.3262C22.3994 32.1406 22.4766 31.9072 22.4766 31.626V29.7598H23.0537V33ZM24.6504 32.543V34.4912H24.0762V29.7598H24.6504V30.3193H24.6621C24.916 29.8955 25.2871 29.6836 25.7754 29.6836C26.1895 29.6836 26.5137 29.8291 26.748 30.1201C26.9844 30.4092 27.1025 30.7979 27.1025 31.2861C27.1025 31.8252 26.9688 32.2588 26.7012 32.5869C26.4355 32.9131 26.0771 33.0762 25.626 33.0762C25.21 33.0762 24.8887 32.8984 24.6621 32.543H24.6504ZM24.6475 31.6641C24.6475 31.9277 24.7324 32.1504 24.9023 32.332C25.0723 32.5117 25.2852 32.6016 25.541 32.6016C25.8457 32.6016 26.084 32.4844 26.2559 32.25C26.4277 32.0156 26.5137 31.6914 26.5137 31.2773C26.5137 30.9277 26.4336 30.6543 26.2734 30.457C26.1133 30.2578 25.8945 30.1582 25.6172 30.1582C25.334 30.1582 25.1016 30.2588 24.9199 30.46C24.7383 30.6611 24.6475 30.9189 24.6475 31.2334V31.6641ZM30.5479 31.5264H28.2803C28.29 31.8721 28.3848 32.1396 28.5645 32.3291C28.7441 32.5166 28.9951 32.6104 29.3174 32.6104C29.6807 32.6104 30.0137 32.4941 30.3164 32.2617V32.7744C30.0312 32.9756 29.6533 33.0762 29.1826 33.0762C28.7139 33.0762 28.3477 32.9277 28.084 32.6309C27.8223 32.334 27.6914 31.9219 27.6914 31.3945C27.6914 30.8984 27.835 30.4893 28.1221 30.167C28.4111 29.8447 28.7695 29.6836 29.1973 29.6836C29.6211 29.6836 29.9521 29.8203 30.1904 30.0938C30.4287 30.3652 30.5479 30.7461 30.5479 31.2363V31.5264ZM29.9736 31.0664C29.9717 30.7734 29.9023 30.5469 29.7656 30.3867C29.6289 30.2266 29.4365 30.1465 29.1885 30.1465C28.96 30.1465 28.7617 30.2314 28.5938 30.4014C28.4277 30.5713 28.3232 30.793 28.2803 31.0664H29.9736ZM33.0498 30.3281C32.9541 30.2598 32.8223 30.2256 32.6543 30.2256C32.4316 30.2256 32.248 30.3301 32.1035 30.5391C31.959 30.7461 31.8867 31.0195 31.8867 31.3594V33H31.3125V29.7598H31.8867V30.4189H31.8984C32.0625 29.9424 32.3457 29.7041 32.748 29.7041C32.8789 29.7041 32.9795 29.7188 33.0498 29.748V30.3281ZM17.124 40.1475C17.2627 40.2686 17.4482 40.3682 17.6807 40.4463C17.9131 40.5244 18.1338 40.5635 18.3428 40.5635C18.9795 40.5635 19.2979 40.3369 19.2979 39.8838C19.2979 39.7568 19.2637 39.6426 19.1953 39.541C19.127 39.4395 19.0332 39.3496 18.9141 39.2715C18.7949 39.1934 18.5713 39.0732 18.2432 38.9111C17.7881 38.6846 17.4883 38.4746 17.3438 38.2812C17.1992 38.0859 17.127 37.8633 17.127 37.6133C17.127 37.2363 17.2783 36.9375 17.5811 36.7168C17.8838 36.4961 18.2656 36.3857 18.7266 36.3857C19.1777 36.3857 19.5088 36.4404 19.7197 36.5498V37.1885C19.4463 36.999 19.1006 36.9043 18.6826 36.9043C18.4053 36.9043 18.1787 36.9629 18.0029 37.0801C17.8291 37.1953 17.7422 37.3564 17.7422 37.5635C17.7422 37.7471 17.8027 37.8965 17.9238 38.0117C18.0449 38.127 18.3076 38.2842 18.7119 38.4834C19.1572 38.6963 19.4688 38.9092 19.6465 39.1221C19.8242 39.335 19.9131 39.5742 19.9131 39.8398C19.9131 40.2383 19.7686 40.5439 19.4795 40.7568C19.1904 40.9697 18.7891 41.0762 18.2754 41.0762C18.0957 41.0762 17.8857 41.0508 17.6455 41C17.4072 40.9512 17.2334 40.8896 17.124 40.8154V40.1475ZM21.2988 40.543V42.4912H20.7246V37.7598H21.2988V38.3193H21.3105C21.5645 37.8955 21.9355 37.6836 22.4238 37.6836C22.8379 37.6836 23.1621 37.8291 23.3965 38.1201C23.6328 38.4092 23.751 38.7979 23.751 39.2861C23.751 39.8252 23.6172 40.2588 23.3496 40.5869C23.084 40.9131 22.7256 41.0762 22.2744 41.0762C21.8584 41.0762 21.5371 40.8984 21.3105 40.543H21.2988ZM21.2959 39.6641C21.2959 39.9277 21.3809 40.1504 21.5508 40.332C21.7207 40.5117 21.9336 40.6016 22.1895 40.6016C22.4941 40.6016 22.7324 40.4844 22.9043 40.25C23.0762 40.0156 23.1621 39.6914 23.1621 39.2773C23.1621 38.9277 23.082 38.6543 22.9219 38.457C22.7617 38.2578 22.543 38.1582 22.2656 38.1582C21.9824 38.1582 21.75 38.2588 21.5684 38.46C21.3867 38.6611 21.2959 38.9189 21.2959 39.2334V39.6641ZM24.4863 36.6172C24.4863 36.5156 24.5205 36.4307 24.5889 36.3623C24.6592 36.292 24.7451 36.2568 24.8467 36.2568C24.9502 36.2568 25.0371 36.291 25.1074 36.3594C25.1797 36.4277 25.2158 36.5137 25.2158 36.6172C25.2158 36.7188 25.1797 36.8037 25.1074 36.8721C25.0371 36.9385 24.9502 36.9717 24.8467 36.9717C24.7432 36.9717 24.6572 36.9385 24.5889 36.8721C24.5205 36.8037 24.4863 36.7188 24.4863 36.6172ZM24.5537 41V37.7598H25.1279V41H24.5537ZM28.8955 41H28.3242V39.1572C28.3242 38.4912 28.0811 38.1582 27.5947 38.1582C27.3428 38.1582 27.1357 38.252 26.9736 38.4395C26.8115 38.627 26.7305 38.8643 26.7305 39.1514V41H26.1562V37.7598H26.7305V38.2959H26.7422C26.9863 37.8877 27.3408 37.6836 27.8057 37.6836C28.1611 37.6836 28.4316 37.7979 28.6172 38.0264C28.8027 38.2529 28.8955 38.584 28.8955 39.0195V41ZM32.4932 39.5264H30.2256C30.2354 39.8721 30.3301 40.1396 30.5098 40.3291C30.6895 40.5166 30.9404 40.6104 31.2627 40.6104C31.626 40.6104 31.959 40.4941 32.2617 40.2617V40.7744C31.9766 40.9756 31.5986 41.0762 31.1279 41.0762C30.6592 41.0762 30.293 40.9277 30.0293 40.6309C29.7676 40.334 29.6367 39.9219 29.6367 39.3945C29.6367 38.8984 29.7803 38.4893 30.0674 38.167C30.3564 37.8447 30.7148 37.6836 31.1426 37.6836C31.5664 37.6836 31.8975 37.8203 32.1357 38.0938C32.374 38.3652 32.4932 38.7461 32.4932 39.2363V39.5264ZM31.9189 39.0664C31.917 38.7734 31.8477 38.5469 31.7109 38.3867C31.5742 38.2266 31.3818 38.1465 31.1338 38.1465C30.9053 38.1465 30.707 38.2314 30.5391 38.4014C30.373 38.5713 30.2686 38.793 30.2256 39.0664H31.9189Z" fill="white"/>
</g>
</g>
<defs>
<linearGradient id="paint0_linear_209_3408" x1="5.57681" y1="28.0874" x2="45.9593" y2="28.0874" gradientUnits="userSpaceOnUse">
<stop stop-color="#2DA388"/>
<stop offset="0.505208" stop-color="#115B57"/>
<stop offset="1" stop-color="#0B3C43"/>
</linearGradient>
</defs>
</svg>
