<svg width="48" height="48" viewBox="0 0 48 48" fill="none" xmlns="http://www.w3.org/2000/svg">
<g id="Frame 270">
<g id="Group 430">
<path id="Vector" d="M32.7254 24.9624C32.7606 24.9405 32.7999 24.927 32.8404 24.9228C32.881 24.9186 32.9219 24.9239 32.9604 24.9383C32.9989 24.9526 33.034 24.9757 33.0633 25.006C33.0927 25.0363 33.1155 25.073 33.1304 25.1136L33.5873 26.3067L33.9849 27.3606C34.0003 27.409 34.004 27.4608 33.9956 27.5111C33.9873 27.5615 33.9671 27.6087 33.9371 27.6485C33.907 27.6882 33.868 27.7191 33.8237 27.7383C33.7795 27.7575 33.7314 27.7644 33.6839 27.7583L31.6815 27.472L30.0208 27.2373C29.9614 27.2299 29.9057 27.2025 29.8618 27.1591C29.8178 27.1156 29.7879 27.0584 29.7764 26.9956C29.7648 26.9327 29.7721 26.8676 29.7974 26.8096C29.8226 26.7515 29.8644 26.7036 29.9167 26.6726C29.96 26.6461 29.9959 26.6079 30.0209 26.5618C30.0459 26.5157 30.0591 26.4634 30.0591 26.4101C30.0591 26.3568 30.0459 26.3044 30.0209 26.2583C29.9959 26.2122 29.96 26.174 29.9167 26.1476L25.3396 23.3557C25.2964 23.3293 25.2604 23.2911 25.2354 23.245C25.2104 23.1989 25.1973 23.1465 25.1973 23.0932C25.1973 23.0399 25.2104 22.9876 25.2354 22.9415C25.2604 22.8954 25.2964 22.8572 25.3396 22.8307L26.2982 22.2342C26.3415 22.2069 26.3909 22.1925 26.4412 22.1925C26.4915 22.1925 26.5409 22.2069 26.5842 22.2342L31.7223 25.4158C31.7657 25.4431 31.8151 25.4575 31.8654 25.4575C31.9157 25.4575 31.965 25.4431 32.0084 25.4158L32.7254 24.9624ZM25.9118 29.202C25.947 29.18 25.9862 29.1665 26.0268 29.1624C26.0673 29.1582 26.1083 29.1635 26.1467 29.1778C26.1852 29.1922 26.2203 29.2153 26.2497 29.2455C26.279 29.2758 26.3019 29.3125 26.3167 29.3531L26.77 30.5462L27.1675 31.6001C27.1829 31.6485 27.1866 31.7003 27.1783 31.7507C27.1699 31.801 27.1498 31.8483 27.1197 31.888C27.0896 31.9277 27.0506 31.9586 27.0064 31.9779C26.9621 31.9971 26.914 32.0039 26.8666 31.9978L24.8641 31.7155L23.2071 31.5246C23.1477 31.5172 23.092 31.4898 23.0481 31.4463C23.0042 31.4029 22.9743 31.3456 22.9627 31.2828C22.9511 31.22 22.9585 31.1549 22.9837 31.0968C23.009 31.0388 23.0508 30.9908 23.1031 30.9598C23.1463 30.9334 23.1823 30.8952 23.2073 30.8491C23.2323 30.803 23.2454 30.7506 23.2454 30.6973C23.2454 30.644 23.2323 30.5917 23.2073 30.5456C23.1823 30.4995 23.1463 30.4613 23.1031 30.4349L18.526 27.5952C18.4827 27.5688 18.4468 27.5306 18.4218 27.4845C18.3968 27.4384 18.3836 27.3861 18.3836 27.3328C18.3836 27.2795 18.3968 27.2271 18.4218 27.181C18.4468 27.1349 18.4827 27.0967 18.526 27.0703L19.4845 26.4737C19.5279 26.4464 19.5772 26.4321 19.6275 26.4321C19.6778 26.4321 19.7272 26.4464 19.7706 26.4737L24.9087 29.6554C24.952 29.6826 25.0014 29.697 25.0517 29.697C25.102 29.697 25.1514 29.6826 25.1947 29.6554L25.9118 29.202ZM19.0833 21.2956C19.04 21.322 19.0041 21.3602 18.9791 21.4063C18.9541 21.4524 18.9409 21.5048 18.9409 21.5581C18.9409 21.6114 18.9541 21.6638 18.9791 21.7099C19.0041 21.7559 19.04 21.7941 19.0833 21.8206L23.6567 24.6483C23.6999 24.6747 23.7358 24.7129 23.7608 24.759C23.7858 24.8051 23.799 24.8574 23.799 24.9107C23.799 24.964 23.7858 25.0164 23.7608 25.0625C23.7358 25.1086 23.6999 25.1468 23.6567 25.1732L22.6981 25.7698C22.6548 25.7971 22.6054 25.8114 22.5551 25.8114C22.5048 25.8114 22.4554 25.7971 22.4121 25.7698L17.274 22.5881C17.2306 22.5609 17.1812 22.5465 17.1309 22.5465C17.0806 22.5465 17.0313 22.5609 16.9879 22.5881L16.2709 23.0336C16.2356 23.0555 16.1964 23.069 16.1559 23.0732C16.1153 23.0774 16.0744 23.0721 16.0359 23.0577C15.9974 23.0434 15.9623 23.0203 15.933 22.99C15.9036 22.9598 15.8808 22.9231 15.8659 22.8824L15.4127 21.6893L15.0151 20.6354C14.9997 20.587 14.996 20.5352 15.0044 20.4849C15.0127 20.4345 15.0329 20.3873 15.0629 20.3476C15.093 20.3078 15.132 20.2769 15.1763 20.2577C15.2205 20.2385 15.2686 20.2316 15.3161 20.2377L17.3185 20.5241L18.9755 20.7587C19.0282 20.7713 19.0764 20.7998 19.1144 20.8408C19.1525 20.8819 19.1787 20.9337 19.19 20.9902C19.2014 21.0467 19.1973 21.1055 19.1784 21.1596C19.1595 21.2138 19.1265 21.261 19.0833 21.2956ZM25.8969 17.0561C25.8537 17.0825 25.8177 17.1207 25.7927 17.1668C25.7677 17.2129 25.7546 17.2653 25.7546 17.3186C25.7546 17.3719 25.7677 17.4242 25.7927 17.4703C25.8177 17.5164 25.8537 17.5546 25.8969 17.581L30.4703 20.4087C30.5135 20.4352 30.5495 20.4734 30.5745 20.5195C30.5995 20.5656 30.6127 20.6179 30.6127 20.6712C30.6127 20.7245 30.5995 20.7769 30.5745 20.823C30.5495 20.8691 30.5135 20.9073 30.4703 20.9337L29.5118 21.5303C29.4684 21.5575 29.419 21.5719 29.3688 21.5719C29.3185 21.5719 29.2691 21.5575 29.2257 21.5303L24.0876 18.3486C24.0443 18.3213 23.9949 18.307 23.9446 18.307C23.8943 18.307 23.8449 18.3213 23.8015 18.3486L23.0882 18.798C23.053 18.82 23.0138 18.8335 22.9732 18.8376C22.9327 18.8418 22.8917 18.8365 22.8533 18.8222C22.8148 18.8078 22.7797 18.7847 22.7503 18.7545C22.721 18.7242 22.6981 18.6875 22.6833 18.6469L22.23 17.4538L21.8325 16.3999C21.8171 16.3515 21.8134 16.2997 21.8217 16.2493C21.8301 16.199 21.8502 16.1517 21.8803 16.112C21.9104 16.0723 21.9494 16.0414 21.9936 16.0221C22.0379 16.0029 22.086 15.9961 22.1334 16.0022L24.1359 16.2885L25.7929 16.5232C25.8444 16.5369 25.8913 16.5659 25.9282 16.6068C25.965 16.6478 25.9903 16.699 26.0012 16.7547C26.012 16.8103 26.008 16.8681 25.9896 16.9214C25.9711 16.9748 25.939 17.0214 25.8969 17.0561Z" fill="white"/>
<path id="Vector_2" d="M43.7313 15.5123C45.3013 16.4123 45.3013 17.8823 43.7313 18.7923L26.8313 28.6223C25.9557 29.066 24.9879 29.2972 24.0063 29.2972C23.0247 29.2972 22.0569 29.066 21.1813 28.6223L4.18125 18.7923C2.61125 17.8823 2.60125 16.4123 4.18125 15.5123L21.0413 5.68232C21.9172 5.23387 22.8872 5 23.8713 5C24.8553 5 25.8253 5.23387 26.7013 5.68232L43.7313 15.5123Z" fill="#5DCCB3"/>
<g id="Union">
<path d="M3 30C3.03261 30.3564 3.16023 30.6975 3.36954 30.9875C3.57671 31.2749 3.85642 31.502 4.17999 31.6455V31.6602L21.25 41.4773L21.25 41.4902C21.4318 41.5994 21.6225 41.6931 21.82 41.7703V41.7302L22.31 41.8901V41.9001L22.72 42.0002V41.9902L23.1 42.0569V42.1001H23.51V42.1702H23.9V42.123C23.9566 42.1245 24.0133 42.1252 24.07 42.1252C24.1468 42.1252 24.2234 42.1238 24.3 42.1211V42.1401H24.75V42.0884C24.9211 42.0698 25.0913 42.0439 25.26 42.0115V42.0203C25.5179 41.9768 25.772 41.9133 26.02 41.8301C26.314 41.7354 26.5986 41.6125 26.8701 41.4653L26.87 41.4902L43.5002 31.8228L43.5 31.8301L43.87 31.6199V31.6299C43.9766 31.5652 44.0793 31.4949 44.1781 31.4189C44.2268 31.3831 44.2739 31.3447 44.3191 31.3044L44.37 31.26V31.27C44.4121 31.2322 44.4526 31.1924 44.4913 31.1511C44.5366 31.1028 44.5796 31.0525 44.62 31V30.9683C44.66 30.9121 44.697 30.8538 44.7307 30.7939C44.748 30.7664 44.7644 30.7385 44.78 30.71C44.8197 30.6458 44.8531 30.5779 44.88 30.5073V30.52C44.9078 30.4482 44.9312 30.3748 44.95 30.3V30.2036C44.9557 30.1755 44.9607 30.1472 44.9651 30.1187C44.9713 30.0793 44.9762 30.0398 44.98 30V17.28C44.9904 17.2036 44.9904 17.1262 44.98 17.05V17C44.9534 17.2803 44.8679 17.551 44.73 17.7949C44.6964 17.8486 44.6596 17.9004 44.62 17.95V17.9683L44.6185 17.9705C44.5472 18.0706 44.4676 18.1653 44.38 18.25L44.37 18.21V18.2576C44.2199 18.4009 44.048 18.5203 43.86 18.6111V18.5901H43.81L43.8092 18.6265L26.9995 28.3982L27 28.3301L26.8984 28.3887L26.8467 28.4187C26.6808 28.5154 26.492 28.625 26.3111 28.7119C25.9699 28.843 25.6181 28.9436 25.26 29.0132V29.0103C25.0917 29.0447 24.9213 29.0681 24.75 29.0801V29.0906C24.604 29.1064 24.4572 29.1174 24.31 29.123V29.1201H23.9V29.1255C23.36 29.1108 22.8257 29.0261 22.31 28.8748V28.8501C22.1432 28.8042 21.9795 28.7473 21.82 28.6802V28.7085C21.6263 28.6338 21.4361 28.5493 21.25 28.4553V28.4502L4.22 18.6655V18.6201L4.191 18.6489L4.19 18.6499L4.17999 18.6455C3.85642 18.502 3.57671 18.2749 3.36954 17.9875C3.16023 17.6975 3.03261 17.3564 3 17V30Z" fill="url(#paint0_linear_209_5830)"/>
<path d="M44.98 30.05C44.9844 30.1267 44.9844 30.2034 44.98 30.28V30.05Z" fill="url(#paint1_linear_209_5830)"/>
</g>
<path id="Vector 2 (Stroke)" fill-rule="evenodd" clip-rule="evenodd" d="M25.9873 35.6524C25.4574 35.9027 24.9945 36.0978 24.6698 36.179C23.9233 36.3656 23.1242 36.2519 22.5188 36.1007C21.9016 35.9466 21.3947 35.7299 21.1869 35.626L21.1641 35.6146L3 24.5V23L21.8337 34.3839C21.9794 34.4542 22.3747 34.6217 22.858 34.7424C23.3783 34.8723 23.9125 34.9253 24.3302 34.8208C24.5055 34.777 24.8551 34.6389 25.3896 34.3865C25.9075 34.1419 26.5548 33.8118 27.3041 33.4132C28.8018 32.6164 30.6847 31.5584 32.7139 30.3929C36.7755 28.0601 40.9851 25.8677 45 23.5V25C41.7534 26.9147 37.4782 29.271 33.4111 31.6069C31.3778 32.7748 29.4794 33.8417 27.9616 34.6492C27.203 35.0527 26.5339 35.3944 25.9873 35.6524Z" fill="#46C1A5"/>
<path id="&#229;&#133;&#182;&#228;&#187;&#150;" d="M7.50437 28.832L6.37025 28.1773L6.17124 32.1889L5.66126 31.8945L5.86027 27.8828L4.73123 27.231L4.75706 26.7101L7.53021 28.3112L7.50437 28.832ZM7.76523 30.8337C7.80152 30.1022 8.00209 29.619 8.36693 29.3842C8.73178 29.1494 9.20768 29.2014 9.79461 29.5403C10.341 29.8557 10.7702 30.3213 11.0824 30.937C11.3947 31.5527 11.5339 32.1999 11.5003 32.8788C11.4638 33.6142 11.264 34.0988 10.9009 34.3327C10.5379 34.5665 10.0705 34.5184 9.49878 34.1883C8.9406 33.8661 8.50371 33.3961 8.18811 32.7785C7.87251 32.1608 7.73155 31.5126 7.76523 30.8337ZM8.30036 31.0945C8.27317 31.6427 8.37228 32.1524 8.59771 32.6237C8.82492 33.094 9.1339 33.4419 9.52462 33.6675C9.9441 33.9097 10.2809 33.9416 10.5351 33.7633C10.7911 33.584 10.9332 33.2095 10.9614 32.6399C10.9905 32.0547 10.8953 31.5352 10.676 31.0815C10.4583 30.6288 10.1457 30.2848 9.73804 30.0494C9.33716 29.818 9.00408 29.7982 8.73879 29.9902C8.4735 30.1822 8.32736 30.5503 8.30036 31.0945ZM15.0159 37.2954L14.4171 36.9497L13.8274 35.315C13.7097 34.9881 13.5989 34.7486 13.4951 34.5964C13.3914 34.4422 13.2643 34.3216 13.1137 34.2347L12.7484 34.0238L12.6537 35.9316L12.1463 35.6386L12.3712 31.1061L13.5687 31.7975C13.951 32.0182 14.2451 32.2974 14.451 32.635C14.657 32.9726 14.7505 33.3326 14.7315 33.715C14.7004 34.3431 14.3892 34.5828 13.7981 34.4342L13.7973 34.4488C13.903 34.564 13.9923 34.6928 14.0653 34.8352C14.1399 34.9787 14.234 35.2046 14.3474 35.5129L15.0159 37.2954ZM12.8532 31.9111L12.7738 33.5117L13.3726 33.8574C13.6043 33.9912 13.7959 34.0216 13.9474 33.9485C14.1006 33.8765 14.1835 33.7136 14.1961 33.46C14.2078 33.224 14.151 33.0016 14.0256 32.7927C13.9003 32.5839 13.7116 32.4068 13.4596 32.2612L12.8532 31.9111Z" fill="white"/>
<path id="Vector_3" d="M32.7254 17.9624C32.7606 17.9405 32.7999 17.927 32.8404 17.9228C32.881 17.9187 32.9219 17.9239 32.9604 17.9383C32.9989 17.9526 33.034 17.9757 33.0633 18.006C33.0927 18.0363 33.1155 18.073 33.1304 18.1136L33.5873 19.3067L33.9849 20.3606C34.0003 20.409 34.004 20.4608 33.9956 20.5111C33.9873 20.5615 33.9671 20.6087 33.9371 20.6485C33.907 20.6882 33.868 20.7191 33.8237 20.7383C33.7795 20.7575 33.7314 20.7644 33.6839 20.7583L31.6815 20.472L30.0208 20.2373C29.9614 20.2299 29.9057 20.2025 29.8618 20.1591C29.8178 20.1156 29.7879 20.0584 29.7764 19.9956C29.7648 19.9327 29.7722 19.8676 29.7974 19.8096C29.8226 19.7515 29.8644 19.7036 29.9167 19.6726C29.96 19.6461 29.9959 19.6079 30.0209 19.5618C30.0459 19.5157 30.0591 19.4634 30.0591 19.4101C30.0591 19.3568 30.0459 19.3044 30.0209 19.2583C29.9959 19.2122 29.96 19.174 29.9167 19.1476L25.3396 16.3557C25.2964 16.3293 25.2604 16.2911 25.2354 16.245C25.2104 16.1989 25.1973 16.1465 25.1973 16.0932C25.1973 16.0399 25.2104 15.9876 25.2354 15.9415C25.2604 15.8954 25.2964 15.8572 25.3396 15.8307L26.2982 15.2342C26.3415 15.2069 26.3909 15.1925 26.4412 15.1925C26.4915 15.1925 26.5409 15.2069 26.5842 15.2342L31.7223 18.4158C31.7657 18.4431 31.8151 18.4575 31.8654 18.4575C31.9157 18.4575 31.965 18.4431 32.0084 18.4158L32.7254 17.9624ZM25.9118 22.202C25.947 22.18 25.9862 22.1665 26.0268 22.1624C26.0673 22.1582 26.1083 22.1635 26.1467 22.1778C26.1852 22.1922 26.2203 22.2153 26.2497 22.2455C26.279 22.2758 26.3019 22.3125 26.3167 22.3531L26.77 23.5462L27.1675 24.6001C27.1829 24.6485 27.1866 24.7003 27.1783 24.7507C27.1699 24.801 27.1498 24.8483 27.1197 24.888C27.0896 24.9277 27.0506 24.9586 27.0064 24.9779C26.9621 24.9971 26.914 25.0039 26.8666 24.9978L24.8641 24.7155L23.2071 24.5246C23.1477 24.5172 23.092 24.4898 23.0481 24.4463C23.0042 24.4029 22.9743 24.3456 22.9627 24.2828C22.9511 24.22 22.9585 24.1549 22.9837 24.0968C23.009 24.0388 23.0508 23.9908 23.1031 23.9598C23.1463 23.9334 23.1823 23.8952 23.2073 23.8491C23.2323 23.803 23.2454 23.7506 23.2454 23.6973C23.2454 23.644 23.2323 23.5917 23.2073 23.5456C23.1823 23.4995 23.1463 23.4613 23.1031 23.4349L18.526 20.5952C18.4827 20.5688 18.4468 20.5306 18.4218 20.4845C18.3968 20.4384 18.3836 20.3861 18.3836 20.3328C18.3836 20.2795 18.3968 20.2271 18.4218 20.181C18.4468 20.1349 18.4827 20.0967 18.526 20.0703L19.4845 19.4737C19.5279 19.4465 19.5772 19.4321 19.6275 19.4321C19.6778 19.4321 19.7272 19.4465 19.7706 19.4737L24.9087 22.6554C24.952 22.6826 25.0014 22.697 25.0517 22.697C25.102 22.697 25.1514 22.6826 25.1947 22.6554L25.9118 22.202ZM19.0833 14.2956C19.04 14.322 19.0041 14.3602 18.9791 14.4063C18.9541 14.4524 18.9409 14.5048 18.9409 14.5581C18.9409 14.6114 18.9541 14.6638 18.9791 14.7099C19.0041 14.7559 19.04 14.7941 19.0833 14.8206L23.6567 17.6483C23.6999 17.6747 23.7358 17.7129 23.7608 17.759C23.7858 17.8051 23.799 17.8574 23.799 17.9107C23.799 17.964 23.7858 18.0164 23.7608 18.0625C23.7358 18.1086 23.6999 18.1468 23.6567 18.1732L22.6981 18.7698C22.6548 18.7971 22.6054 18.8114 22.5551 18.8114C22.5048 18.8114 22.4554 18.7971 22.4121 18.7698L17.274 15.5881C17.2306 15.5609 17.1812 15.5465 17.1309 15.5465C17.0806 15.5465 17.0313 15.5609 16.9879 15.5881L16.2709 16.0336C16.2356 16.0555 16.1964 16.069 16.1559 16.0732C16.1153 16.0774 16.0744 16.0721 16.0359 16.0577C15.9974 16.0434 15.9623 16.0203 15.933 15.99C15.9036 15.9598 15.8808 15.9231 15.8659 15.8825L15.4127 14.6893L15.0151 13.6354C14.9997 13.587 14.996 13.5352 15.0044 13.4849C15.0127 13.4345 15.0329 13.3873 15.0629 13.3476C15.093 13.3078 15.132 13.2769 15.1763 13.2577C15.2205 13.2385 15.2686 13.2316 15.3161 13.2377L17.3185 13.5241L18.9755 13.7587C19.0282 13.7713 19.0764 13.7998 19.1144 13.8408C19.1525 13.8819 19.1787 13.9337 19.19 13.9902C19.2014 14.0467 19.1973 14.1055 19.1784 14.1596C19.1595 14.2138 19.1265 14.261 19.0833 14.2956ZM25.8969 10.0561C25.8537 10.0825 25.8177 10.1207 25.7927 10.1668C25.7677 10.2129 25.7546 10.2653 25.7546 10.3186C25.7546 10.3719 25.7677 10.4242 25.7927 10.4703C25.8177 10.5164 25.8537 10.5546 25.8969 10.581L30.4703 13.4087C30.5135 13.4352 30.5495 13.4734 30.5745 13.5195C30.5995 13.5656 30.6127 13.6179 30.6127 13.6712C30.6127 13.7245 30.5995 13.7769 30.5745 13.823C30.5495 13.8691 30.5135 13.9073 30.4703 13.9337L29.5118 14.5303C29.4684 14.5575 29.419 14.5719 29.3688 14.5719C29.3185 14.5719 29.2691 14.5575 29.2257 14.5303L24.0876 11.3486C24.0443 11.3213 23.9949 11.307 23.9446 11.307C23.8943 11.307 23.8449 11.3213 23.8015 11.3486L23.0882 11.798C23.053 11.82 23.0138 11.8335 22.9732 11.8376C22.9327 11.8418 22.8917 11.8365 22.8533 11.8222C22.8148 11.8078 22.7797 11.7847 22.7503 11.7545C22.721 11.7242 22.6981 11.6875 22.6833 11.6469L22.23 10.4538L21.8325 9.39987C21.8171 9.35147 21.8134 9.29968 21.8217 9.24934C21.8301 9.19899 21.8502 9.15174 21.8803 9.11201C21.9104 9.07228 21.9494 9.04136 21.9936 9.02214C22.0379 9.00293 22.086 8.99606 22.1334 9.00216L24.1359 9.28851L25.7929 9.52315C25.8444 9.53687 25.8913 9.56587 25.9282 9.60682C25.965 9.64777 25.9903 9.69901 26.0012 9.75466C26.012 9.81031 26.008 9.86812 25.9896 9.92143C25.9711 9.97475 25.939 10.0214 25.8969 10.0561Z" fill="white"/>
</g>
</g>
<defs>
<linearGradient id="paint0_linear_209_5830" x1="4.9693" y1="29.3578" x2="45.34" y2="29.3578" gradientUnits="userSpaceOnUse">
<stop stop-color="#2DA388"/>
<stop offset="0.505208" stop-color="#115B57"/>
<stop offset="1" stop-color="#0B3C43"/>
</linearGradient>
<linearGradient id="paint1_linear_209_5830" x1="4.9693" y1="29.3578" x2="45.34" y2="29.3578" gradientUnits="userSpaceOnUse">
<stop stop-color="#2DA388"/>
<stop offset="0.505208" stop-color="#115B57"/>
<stop offset="1" stop-color="#0B3C43"/>
</linearGradient>
</defs>
</svg>
