<svg width="48" height="48" viewBox="0 0 48 48" fill="none" xmlns="http://www.w3.org/2000/svg">
<g id="Frame 382">
<g id="Group 370">
<g id="Group 325">
<path id="Subtract" fill-rule="evenodd" clip-rule="evenodd" d="M4.60576 19.9529C3.54564 18.8163 3 17.5982 3 16.3679C3 16.3588 3.00003 16.3496 3.00009 16.3405H3V16.3679V32.3263C3 37.0996 12.4458 40.9613 24.0721 40.9613C35.6984 40.9613 45.1442 37.0904 45.1442 32.3217V16.985C44.9927 18.0041 44.4667 19.0068 43.5842 19.9529C42.5241 21.0895 40.9703 22.1222 39.0114 22.9921C37.0526 23.862 34.7271 24.552 32.1677 25.0228C29.6083 25.4936 26.8652 25.7359 24.095 25.7359C21.3248 25.7359 18.5817 25.4936 16.0223 25.0228C13.4629 24.552 11.1374 23.862 9.17858 22.9921C7.21973 22.1222 5.66588 21.0895 4.60576 19.9529Z" fill="url(#paint0_linear_293_4944)"/>
<path id="Vector (Stroke)" fill-rule="evenodd" clip-rule="evenodd" d="M4.72476 27.0277C3.61919 25.8044 3 24.935 3 23.5V22C3 23.0112 4.78697 25.064 5.724 26.1008C6.66505 27.142 8.07642 28.1207 9.90897 28.9605C11.7377 29.7986 13.9245 30.4702 16.3476 30.9302C18.7696 31.39 21.3704 31.6275 24 31.6275C26.6296 31.6275 29.2304 31.39 31.6523 30.9302C34.0755 30.4702 36.2623 29.7986 38.091 28.9605C39.9236 28.1207 41.3349 27.142 42.276 26.1008C43.213 25.064 45 23.0112 45 22V23.5C45 24.935 44.3808 25.8044 43.2752 27.0277C42.1737 28.2465 40.5911 29.3212 38.6494 30.2111C36.7039 31.1027 34.41 31.8032 31.9019 32.2793C29.3926 32.7556 26.708 33 24 33C21.292 33 18.6074 32.7556 16.0981 32.2793C13.59 31.8032 11.2961 31.1027 9.35055 30.2111C7.40886 29.3212 5.82633 28.2465 4.72476 27.0277Z" fill="#46C1A5"/>
<path id="Vector" d="M3 16.5C3 17.7476 3.54318 18.9829 4.59853 20.1355C5.65388 21.2881 7.20073 22.3354 9.15076 23.2175C11.1008 24.0997 13.4158 24.7994 15.9636 25.2769C18.5115 25.7543 21.2422 26 24 26C26.7578 26 29.4885 25.7543 32.0364 25.2769C34.5842 24.7994 36.8992 24.0997 38.8492 23.2175C40.7993 22.3354 42.3461 21.2881 43.4015 20.1355C44.4568 18.9829 45 17.7476 45 16.5C45 15.2524 44.4568 14.0171 43.4015 12.8645C42.3461 11.7119 40.7993 10.6646 38.8492 9.78249C36.8992 8.90033 34.5842 8.20056 32.0364 7.72314C29.4885 7.24572 26.7578 7 24 7C21.2422 7 18.5115 7.24572 15.9636 7.72314C13.4158 8.20056 11.1008 8.90033 9.15076 9.78249C7.20073 10.6646 5.65388 11.7119 4.59853 12.8645C3.54318 14.0171 3 15.2524 3 16.5Z" fill="#5DCCB3"/>
</g>
</g>
<g id="Group 381">
<g id="Group 379">
<path id="Vector_2" d="M16.8324 14.4072C16.9086 14.4072 16.9771 14.4529 16.9771 14.5138V15.3815V16.6755V17.5432C16.9771 17.6041 16.9009 17.6498 16.8248 17.6498C16.8 17.657 16.7736 17.657 16.7487 17.6498L13.0799 16.1274C12.9734 16.0818 12.9734 15.9828 13.0799 15.9372L16.8248 14.4148L16.8324 14.4072Z" fill="white"/>
<path id="Vector_3" d="M20.8592 15.3816V18.7763H19.0401V16.6755H16.9316L16.9545 15.3816H20.8592Z" fill="white"/>
</g>
<g id="Group 377">
<path id="Vector_4" d="M27.8839 15.0467V17.1475H29.9999L29.9695 18.4415H26.0571V15.0467H27.8839Z" fill="white"/>
<path id="Vector_5" d="M30.1751 16.1811C30.2 16.1739 30.2264 16.1739 30.2512 16.1811L33.92 17.7034C34.0266 17.7491 34.0266 17.848 33.92 17.8937L30.1751 19.416H30.099C30.0229 19.416 29.9468 19.3703 29.9468 19.3018V18.4417V17.1478V16.28C30.0229 16.2268 30.099 16.1811 30.1751 16.1811Z" fill="white"/>
</g>
</g>
<g id="Group 382">
<g id="Group 380">
<path id="Vector_6" d="M24.8239 8.7751C24.8488 8.77388 24.8737 8.77879 24.8962 8.78941C24.9188 8.80002 24.9384 8.81602 24.9533 8.83599L27.0998 11.4848C27.1531 11.5533 27.0998 11.6447 26.9704 11.6447H25.7449H23.9181H22.6851C22.5633 11.6447 22.4948 11.5533 22.5481 11.4848L24.6945 8.88166C24.706 8.85486 24.7238 8.8312 24.7463 8.81267C24.7688 8.79413 24.7954 8.78125 24.8239 8.7751Z" fill="white"/>
<path id="Vector_7" d="M23.9104 11.599L25.7372 11.6218V14.3848H20.9419V13.0909H23.9104V11.599Z" fill="white"/>
</g>
<g id="Group 378">
<path id="Vector_8" d="M26.4909 19.4384V20.7248H23.5148V22.2243L21.688 22.2014V19.4384H26.4909Z" fill="white"/>
<path id="Vector_9" d="M20.4396 22.1863H21.6651H23.4919H24.7174C24.8391 22.1863 24.9153 22.2776 24.8544 22.3461L22.7231 24.9949C22.7055 25.0132 22.6841 25.0275 22.6605 25.0367C22.6368 25.0459 22.6114 25.0498 22.5861 25.0482C22.563 25.0497 22.5399 25.0457 22.5187 25.0364C22.4975 25.0271 22.4789 25.0129 22.4643 24.9949L20.3179 22.3461C20.2722 22.2776 20.3483 22.1863 20.4396 22.1863Z" fill="white"/>
</g>
</g>
<path id="&#229;&#133;&#182;&#228;&#187;&#150;" d="M20.0928 38.543V40.4912H19.5186V35.7598H20.0928V36.3193H20.1045C20.3584 35.8955 20.7295 35.6836 21.2178 35.6836C21.6318 35.6836 21.9561 35.8291 22.1904 36.1201C22.4268 36.4092 22.5449 36.7979 22.5449 37.2861C22.5449 37.8252 22.4111 38.2588 22.1436 38.5869C21.8779 38.9131 21.5195 39.0762 21.0684 39.0762C20.6523 39.0762 20.3311 38.8984 20.1045 38.543H20.0928ZM20.0898 37.6641C20.0898 37.9277 20.1748 38.1504 20.3447 38.332C20.5146 38.5117 20.7275 38.6016 20.9834 38.6016C21.2881 38.6016 21.5264 38.4844 21.6982 38.25C21.8701 38.0156 21.9561 37.6914 21.9561 37.2773C21.9561 36.9277 21.876 36.6543 21.7158 36.457C21.5557 36.2578 21.3369 36.1582 21.0596 36.1582C20.7764 36.1582 20.5439 36.2588 20.3623 36.46C20.1807 36.6611 20.0898 36.9189 20.0898 37.2334V37.6641ZM26.7871 37.1514C26.7871 38.4346 26.2051 39.0762 25.041 39.0762C23.9258 39.0762 23.3682 38.457 23.3682 37.2188V34.4619H23.9541V37.1924C23.9541 38.1006 24.335 38.5547 25.0967 38.5547C25.833 38.5547 26.2012 38.1152 26.2012 37.2363V34.4619H26.7871V37.1514ZM28.4922 37.3037V39H27.9062V34.4619H29.1953C29.6855 34.4619 30.0654 34.5801 30.335 34.8164C30.6064 35.0527 30.7422 35.3906 30.7422 35.8301C30.7422 36.2754 30.584 36.6367 30.2676 36.9141C29.9512 37.1895 29.5557 37.3193 29.0811 37.3037H28.4922ZM28.4922 34.9775V36.7881H29.0342C29.3916 36.7881 29.6631 36.708 29.8486 36.5479C30.0342 36.3857 30.127 36.1543 30.127 35.8535C30.127 35.2695 29.7812 34.9775 29.0898 34.9775H28.4922Z" fill="white"/>
</g>
<defs>
<linearGradient id="paint0_linear_293_4944" x1="4.97664" y1="28.4285" x2="45.4977" y2="28.4285" gradientUnits="userSpaceOnUse">
<stop stop-color="#2DA388"/>
<stop offset="0.505208" stop-color="#115B57"/>
<stop offset="1" stop-color="#0B3C43"/>
</linearGradient>
</defs>
</svg>
