<svg width="24" height="24" viewBox="0 0 24 24" fill="none" xmlns="http://www.w3.org/2000/svg">
<g id="zoom-out">
<g id="Union">
<path d="M13.5 10.5H6V9H13.5V10.5Z" fill="black" fill-opacity="0.9"/>
<path d="M14.2665 15.3271C13.0387 16.3218 11.4746 16.9176 9.77136 16.9176C5.82453 16.9176 2.625 13.7181 2.625 9.77132C2.625 5.82452 5.82453 2.625 9.77136 2.625C13.7182 2.625 16.9177 5.82452 16.9177 9.77132C16.9177 11.4746 16.3218 13.0387 15.3272 14.2665L20.6241 19.5634L19.5635 20.6241L14.2665 15.3271ZM15.4177 9.77132C15.4177 6.65295 12.8898 4.125 9.77136 4.125C6.65295 4.125 4.125 6.65295 4.125 9.77132C4.125 12.8897 6.65295 15.4176 9.77136 15.4176C12.8898 15.4176 15.4177 12.8897 15.4177 9.77132Z" fill="black" fill-opacity="0.9"/>
</g>
</g>
</svg>
